{"glyphs":{"0":{"ha":777,"x_min":62,"x_max":714,"o":"m 714 497 q 694 289 714 383 q 633 127 674 194 q 531 23 593 60 q 389 -14 470 -14 q 242 23 304 -14 q 140 127 180 60 q 82 289 101 194 q 62 498 62 384 q 82 707 62 613 q 140 867 101 801 q 242 970 180 934 q 390 1006 304 1006 q 532 970 471 1006 q 633 867 593 934 q 694 707 674 801 q 714 497 714 612 m 207 497 q 217 313 207 395 q 248 176 227 232 q 303 91 269 121 q 389 61 338 61 q 474 91 439 61 q 530 176 509 121 q 561 313 551 232 q 570 497 570 395 q 561 681 570 600 q 530 817 551 762 q 475 901 509 872 q 390 930 440 930 q 304 901 339 930 q 248 817 269 872 q 216 681 226 762 q 207 497 207 600 z "},"1":{"ha":777,"x_min":92,"x_max":663,"o":"m 663 58 l 663 0 l 134 0 l 134 58 l 227 58 q 271 62 250 58 q 307 76 292 65 q 331 106 322 86 q 340 158 340 125 l 340 888 q 290 829 314 855 q 245 783 267 802 q 202 754 223 764 q 161 743 182 743 q 111 764 131 743 q 92 818 92 785 q 134 831 113 823 q 180 852 155 839 q 232 882 203 864 q 294 925 260 900 l 392 997 l 481 997 l 481 158 q 490 106 481 125 q 514 76 498 86 q 550 62 530 65 q 595 58 571 58 l 663 58 z "},"2":{"ha":777,"x_min":71,"x_max":675,"o":"m 640 774 q 625 679 640 725 q 579 585 609 633 q 506 484 549 536 q 408 371 463 431 l 174 111 l 494 111 q 546 120 526 111 q 579 143 566 129 q 599 176 592 157 q 611 215 606 195 l 616 240 l 675 240 l 668 0 l 71 0 l 71 102 l 302 370 q 395 485 357 434 q 456 581 433 536 q 490 669 479 626 q 500 760 500 713 q 491 832 500 800 q 466 888 483 865 q 422 923 449 911 q 358 936 395 936 q 281 919 311 936 q 235 873 252 902 q 212 807 218 845 q 205 729 205 770 q 159 733 180 729 q 121 748 137 737 q 95 775 104 758 q 86 819 86 793 q 103 893 86 859 q 155 953 121 928 q 240 992 189 978 q 358 1006 291 1006 q 476 989 423 1006 q 565 943 528 972 q 621 869 602 912 q 640 774 640 827 z "},"3":{"ha":777,"x_min":81,"x_max":696,"o":"m 345 61 q 423 73 385 61 q 489 111 460 84 q 534 180 517 137 q 551 285 551 222 q 534 365 551 329 q 484 425 517 400 q 405 464 452 450 q 300 478 358 478 l 256 478 l 256 549 l 300 549 q 386 564 346 549 q 455 607 426 579 q 501 675 484 635 q 518 764 518 715 q 510 836 518 804 q 484 890 502 868 q 438 924 466 913 q 370 936 410 936 q 293 919 323 936 q 245 873 262 902 q 222 807 229 845 q 216 729 216 770 q 170 733 191 729 q 132 748 148 737 q 106 775 115 758 q 97 819 97 793 q 114 893 97 859 q 166 953 132 928 q 252 992 201 978 q 370 1006 302 1006 q 489 991 435 1006 q 581 948 543 976 q 640 879 619 920 q 661 785 661 838 q 645 696 661 738 q 598 622 628 655 q 528 565 568 589 q 439 529 487 541 q 494 520 465 526 q 551 501 523 513 q 606 471 580 489 q 652 426 632 452 q 684 365 672 399 q 696 283 696 330 q 681 184 696 229 q 640 107 666 140 q 579 51 614 74 q 505 14 544 28 q 425 -7 467 -1 q 343 -14 383 -14 q 225 -1 275 -14 q 144 33 176 12 q 96 82 111 54 q 81 140 81 110 q 104 206 81 182 q 168 229 128 229 q 180 162 168 193 q 214 109 192 131 q 270 74 237 86 q 345 61 302 61 z "},"4":{"ha":777,"x_min":24,"x_max":757,"o":"m 757 350 l 757 272 l 585 272 l 585 158 q 594 106 585 125 q 618 76 604 86 q 654 62 633 65 q 699 58 675 58 l 717 58 l 717 0 l 298 0 l 298 58 l 338 58 q 382 62 361 58 q 418 76 404 65 q 443 106 433 86 q 452 158 452 125 l 452 272 l 24 272 l 24 329 l 453 991 l 585 991 l 585 350 l 757 350 m 123 350 l 452 350 l 452 607 q 453 674 452 637 q 454 749 454 711 q 457 824 455 787 q 461 895 458 862 q 448 869 456 885 q 428 833 439 853 q 404 792 417 814 q 379 750 391 770 q 367 730 372 739 q 355 711 361 720 q 345 695 350 703 q 336 681 340 687 l 123 350 z "},"5":{"ha":777,"x_min":77,"x_max":675,"o":"m 332 68 q 411 80 374 68 q 474 119 447 92 q 515 192 500 146 q 530 302 530 237 q 515 398 530 357 q 473 466 500 439 q 406 506 445 493 q 319 519 368 519 q 257 517 283 519 q 212 510 231 514 q 176 500 191 505 q 149 489 161 494 l 115 498 l 160 990 l 624 990 l 631 781 l 572 781 l 567 822 q 561 848 565 837 q 549 865 557 859 q 527 876 541 872 q 492 879 513 879 l 222 879 l 196 574 q 257 589 217 581 q 358 596 297 596 q 483 578 425 596 q 584 523 541 559 q 651 431 627 486 q 675 302 675 375 q 652 174 675 232 q 587 74 629 115 q 481 9 544 33 q 339 -14 418 -14 q 212 0 262 -14 q 131 33 161 13 q 89 78 101 54 q 77 126 77 103 q 98 186 77 165 q 164 208 119 208 q 175 153 164 178 q 206 109 185 127 q 258 79 227 90 q 332 68 290 68 z "},"6":{"ha":777,"x_min":85,"x_max":705,"o":"m 447 939 q 289 836 343 939 q 228 530 235 732 q 266 558 245 545 q 311 581 286 571 q 364 597 335 591 q 427 603 393 603 q 542 583 490 603 q 630 527 593 564 q 686 437 666 490 q 705 318 705 385 q 685 184 705 245 q 627 79 665 123 q 533 11 589 36 q 407 -14 477 -14 q 279 16 338 -14 q 177 106 220 45 q 110 266 134 168 q 85 500 85 363 q 95 628 85 565 q 124 748 104 692 q 174 852 144 804 q 244 934 203 899 q 335 987 284 968 q 447 1006 386 1006 q 548 994 505 1006 q 620 961 591 981 q 662 914 648 941 q 676 860 676 888 q 649 798 676 820 q 570 777 622 777 q 563 840 570 810 q 542 892 557 869 q 504 926 527 913 q 447 939 481 939 m 399 532 q 347 525 372 532 q 300 507 321 517 q 259 481 277 496 q 227 452 241 466 q 241 274 228 348 q 278 153 254 199 q 336 84 302 106 q 411 62 370 62 q 525 121 486 62 q 564 304 564 179 q 521 477 564 422 q 399 532 478 532 z "},"7":{"ha":777,"x_min":82,"x_max":710,"o":"m 710 950 l 368 0 l 264 0 l 591 879 l 227 879 q 169 861 190 879 q 146 808 149 843 l 140 739 l 82 739 l 89 990 l 710 990 l 710 950 z "},"8":{"ha":777,"x_min":64,"x_max":713,"o":"m 64 249 q 80 337 64 299 q 124 404 96 375 q 192 457 153 433 q 275 503 231 481 q 203 551 237 525 q 146 608 170 577 q 109 677 122 640 q 96 757 96 714 q 113 850 96 805 q 165 929 130 895 q 259 985 201 964 q 396 1006 317 1006 q 512 988 461 1006 q 598 938 564 970 q 651 862 633 906 q 669 766 669 819 q 656 687 669 722 q 618 625 642 652 q 559 575 593 597 q 482 532 524 553 q 576 479 533 507 q 649 419 618 452 q 696 348 680 387 q 713 265 713 310 q 689 148 713 200 q 622 60 665 96 q 517 5 579 24 q 379 -14 454 -14 q 242 7 302 -14 q 144 63 183 28 q 84 146 104 98 q 64 249 64 194 m 546 770 q 537 832 546 802 q 511 887 529 863 q 461 925 492 911 q 387 940 431 940 q 318 927 349 940 q 268 893 288 915 q 237 840 248 871 q 227 774 227 810 q 239 707 227 737 q 274 652 251 677 q 332 607 297 628 q 414 564 368 585 q 478 604 452 583 q 519 650 504 625 q 540 704 534 674 q 546 770 546 733 m 386 50 q 468 64 431 50 q 532 102 505 78 q 572 161 557 127 q 586 235 586 195 q 573 300 586 269 q 531 359 560 330 q 455 413 502 387 q 342 469 409 440 q 238 378 277 435 q 199 243 199 321 q 211 164 199 200 q 246 104 223 129 q 304 64 269 79 q 386 50 340 50 z "},"9":{"ha":777,"x_min":71,"x_max":692,"o":"m 375 464 q 437 474 409 465 q 487 498 465 484 q 525 534 509 513 q 550 576 541 554 l 550 579 q 535 736 549 670 q 498 846 522 803 q 441 909 474 888 q 368 929 408 929 q 254 864 295 929 q 214 677 214 800 q 224 580 214 621 q 254 513 234 539 q 305 476 275 488 q 375 464 335 464 m 317 61 q 487 164 431 61 q 549 476 542 268 q 514 441 534 458 q 469 411 494 424 q 412 390 444 398 q 345 382 381 382 q 234 400 284 382 q 147 452 183 418 q 91 540 111 487 q 71 664 71 593 q 91 802 71 739 q 150 910 111 865 q 243 980 188 955 q 368 1006 299 1006 q 498 979 439 1006 q 600 895 557 951 q 667 749 643 838 q 692 539 692 661 q 683 397 692 467 q 654 266 673 327 q 605 153 635 205 q 533 64 574 101 q 437 5 492 26 q 315 -16 382 -16 q 217 -5 256 -16 q 156 22 178 5 q 123 61 133 39 q 114 104 114 83 q 127 148 114 130 q 155 171 140 165 q 179 129 165 149 q 213 94 193 109 q 258 70 233 79 q 317 61 284 61 z "},"\u0000":{"ha":407,"x_min":0,"x_max":0,"o":""},"\r":{"ha":407,"x_min":0,"x_max":0,"o":""}," ":{"ha":361,"x_min":0,"x_max":0,"o":""},"◌":{"ha":1223,"x_min":136,"x_max":1087,"o":"m 547 860 q 566 905 547 887 q 610 923 584 923 q 656 905 637 923 q 674 860 674 887 q 656 817 674 835 q 610 798 637 798 q 566 817 584 798 q 547 860 547 835 m 753 806 q 772 851 753 832 q 817 869 790 869 q 862 851 844 869 q 880 806 880 832 q 862 760 880 779 q 817 742 844 742 q 771 760 789 742 q 753 806 753 779 m 342 806 q 360 851 342 832 q 405 869 378 869 q 450 851 432 869 q 469 806 469 832 q 450 760 469 779 q 405 742 432 742 q 360 761 378 742 q 342 806 342 779 m 905 655 q 924 700 905 682 q 968 718 942 718 q 1014 700 996 718 q 1032 655 1032 682 q 1014 610 1032 628 q 968 591 996 591 q 924 610 942 591 q 905 655 905 628 m 191 655 q 210 700 191 682 q 254 718 228 718 q 300 700 281 718 q 318 655 318 682 q 300 610 318 628 q 254 591 281 591 q 209 609 227 591 q 191 655 191 627 m 960 448 q 978 494 960 475 q 1023 512 996 512 q 1068 494 1050 512 q 1087 448 1087 475 q 1068 404 1087 422 q 1023 385 1050 385 q 978 403 996 385 q 960 448 960 421 m 136 448 q 154 494 136 475 q 199 512 172 512 q 244 494 226 512 q 263 448 263 475 q 244 404 263 422 q 199 385 226 385 q 154 403 172 385 q 136 448 136 421 m 905 242 q 924 287 905 269 q 968 306 942 306 q 1014 287 996 306 q 1032 242 1032 269 q 1014 197 1032 215 q 968 178 996 178 q 924 197 942 178 q 905 242 905 216 m 191 242 q 210 287 191 269 q 254 306 228 306 q 300 287 281 306 q 318 242 318 269 q 300 197 318 215 q 254 178 281 178 q 209 197 227 178 q 191 242 191 215 m 753 92 q 772 138 753 119 q 817 156 790 156 q 862 138 844 156 q 880 92 880 119 q 862 47 880 66 q 817 28 844 28 q 772 47 790 28 q 753 92 753 66 m 342 92 q 360 138 342 119 q 405 156 378 156 q 450 138 432 156 q 469 92 469 119 q 450 47 469 66 q 405 28 432 28 q 361 47 380 28 q 342 92 342 67 m 547 35 q 566 81 547 62 q 610 99 584 99 q 656 81 637 99 q 674 35 674 62 q 656 -9 674 9 q 610 -28 637 -28 q 566 -9 584 -28 q 547 35 547 9 z "},"‌":{"ha":0,"x_min":0,"x_max":70,"o":"m 70 1394 l 70 -334 l 0 -334 l 0 1394 l 70 1394 z "},"﻿":{"ha":0,"x_min":0,"x_max":267,"o":"m 70 -334 l 0 -334 l 0 1394 l 267 1394 l 267 1337 l 70 1337 l 70 -334 z "},".":{"ha":397,"x_min":111,"x_max":286,"o":"m 111 85 q 118 130 111 112 q 137 159 125 148 q 164 174 149 170 q 199 179 180 179 q 232 174 216 179 q 260 159 248 170 q 279 130 272 148 q 286 85 286 112 q 279 40 286 58 q 260 11 272 22 q 232 -5 248 0 q 199 -9 216 -9 q 164 -5 180 -9 q 137 11 149 0 q 118 40 125 22 q 111 85 111 58 z "},",":{"ha":347,"x_min":41,"x_max":269,"o":"m 269 58 q 257 -27 269 14 q 218 -104 245 -69 q 147 -167 191 -138 q 41 -214 104 -195 l 41 -155 q 142 -102 110 -134 q 174 -31 174 -71 q 166 -7 174 -17 q 147 9 159 2 q 136 16 142 12 q 123 22 130 19 q 98 39 110 29 q 79 62 87 48 q 74 78 76 69 q 72 97 72 86 q 98 158 72 137 q 163 179 124 179 q 203 171 184 179 q 237 149 222 163 q 261 111 252 134 q 269 58 269 87 z "},":":{"ha":399,"x_min":113,"x_max":288,"o":"m 113 657 q 119 702 113 684 q 138 731 126 720 q 166 747 150 742 q 200 751 182 751 q 234 747 218 751 q 262 731 250 742 q 280 702 273 720 q 288 657 288 684 q 280 612 288 631 q 262 583 273 594 q 234 567 250 572 q 200 562 218 562 q 166 567 182 562 q 138 583 150 572 q 119 612 126 594 q 113 657 113 631 m 113 85 q 119 130 113 112 q 138 159 126 148 q 166 174 150 170 q 200 179 182 179 q 234 174 218 179 q 262 159 250 170 q 280 130 273 148 q 288 85 288 112 q 280 40 288 58 q 262 11 273 22 q 234 -5 250 0 q 200 -9 218 -9 q 166 -5 182 -9 q 138 11 150 0 q 119 40 126 22 q 113 85 113 58 z "},";":{"ha":347,"x_min":41,"x_max":269,"o":"m 87 657 q 94 702 87 684 q 113 731 101 720 q 141 747 125 742 q 175 751 157 751 q 209 747 193 751 q 237 731 224 742 q 255 702 248 720 q 262 657 262 684 q 255 612 262 631 q 237 583 248 594 q 209 567 224 572 q 175 562 193 562 q 141 567 157 562 q 113 583 125 572 q 94 612 101 594 q 87 657 87 631 m 269 58 q 257 -27 269 14 q 218 -104 245 -69 q 147 -167 191 -138 q 41 -214 104 -195 l 41 -155 q 142 -102 110 -134 q 174 -31 174 -71 q 166 -7 174 -17 q 147 9 159 2 q 136 16 142 12 q 123 22 130 19 q 98 39 110 29 q 79 62 87 48 q 74 78 76 69 q 72 97 72 86 q 98 158 72 137 q 163 179 124 179 q 203 171 184 179 q 237 149 222 163 q 261 111 252 134 q 269 58 269 87 z "},"…":{"ha":1076,"x_min":111,"x_max":964,"o":"m 789 85 q 812 156 789 132 q 877 179 835 179 q 942 156 919 179 q 964 85 964 132 q 942 14 964 37 q 877 -9 919 -9 q 813 13 837 -9 q 789 85 789 36 m 450 85 q 473 156 450 132 q 538 179 496 179 q 603 156 580 179 q 625 85 625 132 q 603 14 625 37 q 538 -9 580 -9 q 474 13 498 -9 q 450 85 450 36 m 111 85 q 134 156 111 132 q 199 179 157 179 q 263 156 241 179 q 286 85 286 132 q 263 14 286 37 q 199 -9 241 -9 q 135 13 159 -9 q 111 85 111 36 z "},"!":{"ha":463,"x_min":143,"x_max":318,"o":"m 262 279 l 199 279 l 150 991 l 311 991 l 262 279 m 143 85 q 150 130 143 112 q 169 159 157 148 q 196 174 180 170 q 231 179 212 179 q 264 174 248 179 q 292 159 280 170 q 311 130 304 148 q 318 85 318 112 q 311 40 318 58 q 292 11 304 22 q 264 -5 280 0 q 231 -9 248 -9 q 196 -5 212 -9 q 169 11 180 0 q 150 40 157 22 q 143 85 143 58 z "},"?":{"ha":694,"x_min":60,"x_max":624,"o":"m 354 436 l 354 279 l 269 279 l 269 490 q 371 547 330 515 q 437 617 412 580 q 472 696 461 654 q 482 778 482 737 q 473 843 482 814 q 446 894 465 873 q 399 926 428 914 q 330 937 370 937 q 258 923 288 937 q 210 884 228 909 q 183 828 191 860 q 175 760 175 795 q 129 766 150 760 q 93 783 108 772 q 69 810 78 793 q 60 850 60 827 q 75 911 60 883 q 123 961 90 940 q 203 994 155 982 q 319 1006 252 1006 q 440 989 385 1006 q 537 940 496 972 q 601 860 578 907 q 624 754 624 813 q 606 650 624 697 q 553 565 588 604 q 469 494 519 526 q 354 436 418 463 m 222 85 q 229 130 222 112 q 248 159 236 148 q 276 174 260 170 q 310 179 292 179 q 343 174 328 179 q 372 159 359 170 q 390 130 383 148 q 397 85 397 112 q 390 40 397 58 q 372 11 383 22 q 343 -5 359 0 q 310 -9 328 -9 q 276 -5 292 -9 q 248 11 260 0 q 229 40 236 22 q 222 85 222 58 z "},"'":{"ha":306,"x_min":79,"x_max":227,"o":"m 184 665 l 121 665 l 79 991 l 227 991 l 184 665 z "},"\"":{"ha":567,"x_min":79,"x_max":488,"o":"m 446 665 l 382 665 l 340 991 l 488 991 l 446 665 m 184 665 l 121 665 l 79 991 l 227 991 l 184 665 z "},"‛":{"ha":347,"x_min":78,"x_max":306,"o":"m 78 721 q 91 807 78 765 q 130 883 103 848 q 201 946 157 918 q 306 993 245 975 l 306 935 q 205 882 237 913 q 174 810 174 850 q 181 787 174 796 q 200 771 189 778 q 212 764 205 768 q 224 757 218 760 q 249 741 237 750 q 268 718 260 731 q 273 702 271 711 q 275 682 275 693 q 249 621 275 642 q 184 600 223 600 q 144 608 163 600 q 110 631 125 616 q 86 669 95 646 q 78 721 78 692 z "},"’":{"ha":347,"x_min":41,"x_max":269,"o":"m 269 871 q 257 785 269 827 q 218 709 245 743 q 147 646 191 674 q 41 599 104 617 l 41 657 q 142 710 110 679 q 174 782 174 741 q 166 805 174 795 q 147 821 159 814 q 136 828 142 825 q 123 835 130 831 q 98 851 110 842 q 79 875 87 861 q 74 890 76 882 q 72 909 72 899 q 98 970 72 949 q 163 991 124 991 q 203 984 184 991 q 237 961 222 976 q 261 923 252 946 q 269 871 269 900 z "},"“":{"ha":625,"x_min":78,"x_max":583,"o":"m 355 721 q 368 807 355 765 q 408 883 380 848 q 478 946 435 918 q 583 993 522 975 l 583 935 q 484 882 516 913 q 452 810 452 850 q 459 787 452 796 q 478 771 467 778 q 490 764 484 768 q 503 757 496 760 q 527 741 515 750 q 545 718 538 731 q 551 702 549 711 q 553 682 553 693 q 527 621 553 642 q 463 600 501 600 q 422 608 441 600 q 388 631 402 616 q 364 669 373 646 q 355 721 355 692 m 78 721 q 91 807 78 765 q 130 883 103 848 q 201 946 157 918 q 306 993 245 975 l 306 935 q 205 882 237 913 q 174 810 174 850 q 181 787 174 796 q 200 771 189 778 q 212 764 205 768 q 224 757 218 760 q 249 741 237 750 q 268 718 260 731 q 273 702 271 711 q 275 682 275 693 q 249 621 275 642 q 184 600 223 600 q 144 608 163 600 q 110 631 125 616 q 86 669 95 646 q 78 721 78 692 z "},"”":{"ha":625,"x_min":41,"x_max":547,"o":"m 547 871 q 535 785 547 827 q 496 709 523 743 q 425 646 469 674 q 319 599 382 617 l 319 657 q 419 710 387 679 q 452 782 452 741 q 444 805 452 795 q 425 821 437 814 q 414 828 420 825 q 401 835 408 831 q 376 851 388 842 q 357 875 365 861 q 352 890 354 882 q 350 909 350 899 q 376 970 350 949 q 440 991 401 991 q 481 984 462 991 q 515 961 500 976 q 538 923 530 946 q 547 871 547 900 m 269 871 q 257 785 269 827 q 218 709 245 743 q 147 646 191 674 q 41 599 104 617 l 41 657 q 142 710 110 679 q 174 782 174 741 q 166 805 174 795 q 147 821 159 814 q 136 828 142 825 q 123 835 130 831 q 98 851 110 842 q 79 875 87 861 q 74 890 76 882 q 72 909 72 899 q 98 970 72 949 q 163 991 124 991 q 203 984 184 991 q 237 961 222 976 q 261 923 252 946 q 269 871 269 900 z "},"(":{"ha":481,"x_min":79,"x_max":436,"o":"m 224 440 q 230 277 224 357 q 258 124 237 196 q 323 -9 280 52 q 436 -114 366 -71 l 436 -178 q 273 -85 341 -140 q 162 44 205 -31 q 99 217 119 119 q 79 440 79 315 q 99 663 79 565 q 162 835 119 760 q 273 963 205 909 q 436 1055 341 1017 l 436 993 q 323 889 366 950 q 258 756 280 827 q 230 604 237 685 q 224 440 224 523 z "},")":{"ha":481,"x_min":45,"x_max":401,"o":"m 257 440 q 251 604 257 523 q 222 756 244 685 q 158 889 200 827 q 45 993 115 950 l 45 1055 q 208 963 140 1017 q 319 835 276 909 q 381 663 361 760 q 401 440 401 565 q 381 217 401 315 q 319 44 361 119 q 208 -85 276 -31 q 45 -178 140 -140 l 45 -114 q 158 -9 115 -71 q 222 124 200 52 q 251 277 244 196 q 257 440 257 357 z "},"[":{"ha":498,"x_min":139,"x_max":449,"o":"m 449 -119 l 449 -178 l 139 -178 l 139 1055 l 449 1055 l 449 997 l 389 997 q 345 994 366 997 q 309 980 324 990 q 284 949 293 969 q 275 897 275 930 l 275 -20 q 284 -72 275 -52 q 309 -102 293 -92 q 345 -116 324 -113 q 389 -119 366 -119 l 449 -119 z "},"]":{"ha":500,"x_min":52,"x_max":361,"o":"m 361 1055 l 361 -178 l 52 -178 l 52 -119 l 111 -119 q 156 -116 135 -119 q 192 -102 177 -113 q 216 -72 207 -92 q 225 -20 225 -52 l 225 897 q 216 949 225 930 q 192 980 207 969 q 156 994 177 990 q 111 997 135 997 l 52 997 l 52 1055 l 361 1055 z "},"{":{"ha":595,"x_min":69,"x_max":525,"o":"m 525 -118 l 525 -178 l 433 -178 q 347 -163 385 -178 q 284 -123 309 -149 q 246 -61 259 -98 q 233 22 233 -24 l 233 264 q 221 334 233 307 q 186 379 208 362 q 134 402 163 395 q 69 411 104 410 l 69 469 q 134 477 104 471 q 186 501 163 484 q 221 545 208 517 q 233 615 233 573 l 233 857 q 284 1004 233 952 q 433 1055 334 1055 l 525 1055 l 525 996 l 484 996 q 396 959 422 996 q 370 850 370 922 l 370 612 q 331 500 370 545 q 215 441 292 454 l 215 440 q 332 381 294 427 q 370 268 370 336 l 370 28 q 396 -80 370 -43 q 484 -118 422 -118 l 525 -118 z "},"}":{"ha":595,"x_min":69,"x_max":525,"o":"m 161 -178 l 69 -178 l 69 -118 l 111 -118 q 199 -80 172 -118 q 225 28 225 -43 l 225 268 q 262 381 225 336 q 379 440 300 427 l 379 441 q 264 500 302 454 q 225 612 225 545 l 225 850 q 199 959 225 922 q 111 996 172 996 l 69 996 l 69 1055 l 161 1055 q 310 1004 259 1055 q 361 857 361 952 l 361 615 q 374 545 361 573 q 409 501 387 517 q 460 477 431 484 q 525 469 490 471 l 525 411 q 460 402 490 410 q 409 379 431 395 q 374 334 387 362 q 361 264 361 307 l 361 22 q 348 -61 361 -24 q 310 -123 335 -98 q 248 -163 285 -149 q 161 -178 210 -178 z "},"<":{"ha":777,"x_min":90,"x_max":686,"o":"m 686 245 l 686 153 l 90 472 l 90 521 l 686 842 l 686 749 l 220 496 l 686 245 z "},">":{"ha":777,"x_min":90,"x_max":686,"o":"m 686 521 l 686 472 l 90 153 l 90 245 l 557 496 l 90 749 l 90 842 l 686 521 z "},"ł":{"ha":400,"x_min":0,"x_max":400,"o":"m 319 1055 l 400 1055 l 82 -168 l 0 -168 l 319 1055 z "},"\\":{"ha":400,"x_min":0,"x_max":400,"o":"m 400 -168 l 318 -168 l 0 1055 l 81 1055 l 400 -168 z "},"|":{"ha":777,"x_min":346,"x_max":429,"o":"m 346 1055 l 429 1055 l 429 -334 l 346 -334 l 346 1055 z "},"@":{"ha":1279,"x_min":90,"x_max":1206,"o":"m 1206 545 q 1181 363 1206 445 q 1118 225 1156 282 q 1030 138 1079 168 q 933 107 981 107 q 831 141 872 107 q 770 233 789 174 l 762 233 q 730 183 748 206 q 690 143 712 160 q 638 117 667 126 q 575 107 610 107 q 495 121 533 107 q 428 165 456 136 q 381 239 399 194 q 364 345 364 283 q 373 425 364 381 q 399 512 381 469 q 446 595 417 555 q 513 667 474 635 q 603 716 551 697 q 718 734 655 734 q 795 722 763 734 q 848 693 827 710 l 904 722 l 937 722 l 867 368 q 865 352 866 360 q 862 336 863 344 q 859 306 860 322 q 857 275 857 290 q 864 233 857 251 q 883 203 871 215 q 910 186 895 191 q 942 180 925 180 q 1004 205 972 180 q 1062 277 1036 230 q 1104 392 1088 323 q 1121 549 1121 461 q 1092 709 1121 640 q 1011 826 1063 779 q 887 897 960 873 q 728 921 814 921 q 595 902 661 921 q 471 846 529 883 q 362 756 412 810 q 277 635 313 703 q 220 484 241 567 q 200 306 200 401 q 233 109 200 191 q 323 -25 267 26 q 455 -101 380 -77 q 614 -125 530 -125 q 722 -115 671 -125 q 817 -89 772 -105 q 899 -52 861 -73 q 966 -9 937 -31 l 999 -60 q 922 -110 964 -85 q 829 -154 879 -135 q 722 -185 780 -173 q 600 -197 665 -197 q 395 -166 489 -197 q 234 -73 301 -136 q 129 83 167 -11 q 90 302 90 177 q 112 490 90 400 q 174 656 133 579 q 271 795 214 732 q 400 901 329 857 q 556 968 471 944 q 736 991 641 991 q 940 957 852 991 q 1088 863 1029 922 q 1176 721 1147 803 q 1206 545 1206 638 m 493 325 q 523 216 493 252 q 599 180 552 180 q 660 196 633 180 q 703 235 686 211 q 732 291 721 260 q 749 354 743 322 l 802 636 q 771 667 793 656 q 724 677 749 677 q 649 660 683 677 q 590 612 615 642 q 546 545 565 583 q 516 469 528 507 q 498 392 504 430 q 493 325 493 355 z "},"&":{"ha":1031,"x_min":50,"x_max":1018,"o":"m 551 807 q 545 859 551 835 q 523 900 538 883 q 483 927 508 917 q 422 937 457 937 q 328 901 361 937 q 294 806 294 865 q 300 756 294 779 q 317 711 305 733 q 347 663 329 688 q 392 610 366 639 q 463 647 433 627 q 513 690 493 667 q 542 742 532 713 q 551 807 551 770 m 393 64 q 469 72 434 64 q 533 96 504 81 q 587 131 562 111 q 631 176 611 152 l 323 505 q 266 466 292 488 q 223 417 241 445 q 195 353 205 389 q 186 273 186 318 q 201 183 186 222 q 243 118 216 144 q 309 77 271 91 q 393 64 347 64 m 1018 58 l 1018 0 l 796 0 l 681 122 q 626 69 656 94 q 559 26 595 44 q 478 -3 522 7 q 380 -14 433 -14 q 235 7 298 -14 q 132 67 173 28 q 71 159 92 105 q 50 278 50 213 q 66 381 50 337 q 111 458 82 425 q 181 516 140 491 q 272 562 222 541 q 225 622 245 593 q 193 680 205 651 q 173 738 180 708 q 165 802 165 768 q 180 885 165 848 q 227 949 195 922 q 309 991 259 977 q 428 1006 359 1006 q 542 990 494 1006 q 618 947 589 975 q 660 884 647 920 q 673 808 673 848 q 661 729 673 764 q 620 665 648 694 q 547 610 591 636 q 439 557 502 584 l 692 289 q 707 352 701 320 q 718 416 713 385 q 722 476 721 446 q 724 530 724 505 l 724 585 l 974 585 l 974 526 l 961 526 q 916 524 938 526 q 874 511 893 521 q 840 483 855 501 q 815 432 824 464 q 787 335 803 387 q 747 231 771 283 l 876 93 q 897 76 886 83 q 923 65 908 69 q 957 60 937 61 q 1006 58 977 58 l 1018 58 z "},"*":{"ha":694,"x_min":57,"x_max":629,"o":"m 57 721 l 290 790 l 57 860 l 106 970 l 319 835 l 283 1055 l 404 1055 l 366 836 l 581 966 l 629 859 l 395 790 l 629 722 l 581 615 l 366 745 l 404 525 l 283 525 l 318 745 l 106 612 l 57 721 z "},"÷":{"ha":777,"x_min":90,"x_max":686,"o":"m 318 760 q 323 796 318 781 q 338 820 329 811 q 361 832 348 829 q 389 836 374 836 q 416 832 404 836 q 439 820 429 829 q 454 796 449 811 q 460 760 460 781 q 454 724 460 739 q 439 701 449 709 q 416 688 429 692 q 389 684 404 684 q 361 688 374 684 q 338 701 348 692 q 323 724 329 709 q 318 760 318 739 m 90 538 l 686 538 l 686 456 l 90 456 l 90 538 m 318 233 q 323 270 318 255 q 338 294 329 285 q 361 306 348 302 q 389 310 374 310 q 416 306 404 310 q 439 294 429 302 q 454 270 449 285 q 460 233 460 255 q 454 197 460 212 q 439 174 449 182 q 416 161 429 165 q 389 157 404 157 q 338 174 358 157 q 318 233 318 191 z "},"×":{"ha":777,"x_min":98,"x_max":676,"o":"m 676 267 l 618 208 l 387 439 l 157 208 l 98 268 l 329 498 l 98 728 l 157 786 l 387 555 l 618 787 l 676 728 l 446 497 l 676 267 z "},"+":{"ha":777,"x_min":90,"x_max":686,"o":"m 686 538 l 686 456 l 429 456 l 429 199 l 346 199 l 346 456 l 90 456 l 90 538 l 346 538 l 346 794 l 429 794 l 429 538 l 686 538 z "},"−":{"ha":431,"x_min":35,"x_max":396,"o":"m 396 326 l 35 326 l 35 431 l 396 431 l 396 326 z "},"=":{"ha":777,"x_min":90,"x_max":686,"o":"m 90 591 l 90 673 l 686 673 l 686 591 l 90 591 m 90 318 l 90 400 l 686 400 l 686 318 l 90 318 z "},"%":{"ha":1244,"x_min":62,"x_max":1182,"o":"m 518 699 q 504 572 518 629 q 461 474 490 515 q 390 411 433 433 q 290 389 347 389 q 188 411 231 389 q 117 474 144 433 q 76 572 89 515 q 62 699 62 629 q 76 825 62 768 q 117 922 89 882 q 188 984 144 962 q 292 1006 231 1006 q 391 984 349 1006 q 462 922 433 962 q 504 825 490 882 q 518 699 518 768 m 822 991 l 913 991 l 418 0 l 326 0 l 822 991 m 187 699 q 193 592 187 640 q 210 512 198 545 q 242 463 222 479 q 290 446 262 446 q 338 463 319 446 q 370 512 358 479 q 387 592 382 545 q 392 699 392 640 q 387 804 392 758 q 370 882 382 850 q 339 931 358 914 q 292 947 320 947 q 243 931 263 947 q 211 882 223 914 q 193 804 198 850 q 187 699 187 758 m 1182 296 q 1168 169 1182 227 q 1125 71 1154 112 q 1054 8 1097 31 q 954 -14 1011 -14 q 851 8 895 -14 q 781 71 808 31 q 740 169 753 112 q 726 296 726 227 q 740 422 726 365 q 781 519 753 479 q 852 581 808 559 q 956 603 895 603 q 1055 581 1013 603 q 1126 519 1097 559 q 1168 422 1154 479 q 1182 296 1182 365 m 851 296 q 857 189 851 237 q 874 109 862 142 q 906 60 886 77 q 954 43 926 43 q 1002 60 983 43 q 1034 109 1022 77 q 1050 189 1045 142 q 1055 296 1055 237 q 1050 401 1055 355 q 1034 479 1045 447 q 1003 528 1022 511 q 956 545 984 545 q 907 528 927 545 q 875 479 887 511 q 857 401 862 447 q 851 296 851 355 z "},"-":{"ha":431,"x_min":35,"x_max":396,"o":"m 396 431 l 396 326 l 35 326 l 35 431 l 396 431 z "},"–":{"ha":694,"x_min":-7,"x_max":701,"o":"m 701 332 l -7 332 l -7 414 l 701 414 l 701 332 z "},"—":{"ha":1389,"x_min":-7,"x_max":1396,"o":"m 1396 332 l -7 332 l -7 414 l 1396 414 l 1396 332 z "},"#":{"ha":777,"x_min":56,"x_max":721,"o":"m 514 636 l 321 636 l 269 364 l 463 364 l 514 636 m 597 636 l 546 364 l 704 364 l 704 282 l 529 282 l 476 0 l 393 0 l 446 282 l 253 282 l 200 0 l 117 0 l 170 282 l 56 282 l 56 364 l 184 364 l 237 636 l 72 636 l 72 718 l 253 718 l 302 991 l 387 991 l 336 718 l 529 718 l 581 991 l 664 991 l 612 718 l 721 718 l 721 636 l 597 636 z "},"$":{"ha":777,"x_min":92,"x_max":679,"o":"m 240 739 q 247 688 240 710 q 269 649 254 666 q 303 618 283 632 q 351 593 324 605 l 351 884 q 303 864 324 878 q 269 833 282 851 q 247 790 254 814 q 240 739 240 766 m 551 271 q 545 320 551 298 q 522 361 538 342 q 482 397 507 380 q 421 429 457 413 l 421 121 q 517 172 484 132 q 551 271 551 212 m 351 1055 l 421 1055 l 421 950 q 527 936 484 949 q 599 903 571 924 q 639 854 627 882 q 652 794 652 827 q 622 727 652 749 q 542 704 592 704 q 537 766 542 734 q 519 822 532 797 q 482 865 506 847 q 421 886 458 882 l 421 562 q 532 508 484 535 q 612 450 580 481 q 662 379 645 418 q 679 292 679 340 q 611 130 679 188 q 421 58 544 71 l 421 -110 l 351 -110 l 351 56 q 281 59 317 56 q 213 69 246 62 q 149 87 180 76 q 92 113 117 98 l 92 326 l 150 326 q 164 251 150 288 q 206 186 179 215 q 270 139 233 157 q 351 117 307 120 l 351 460 q 241 518 286 489 q 168 578 196 547 q 128 646 140 609 q 115 728 115 683 q 132 812 115 774 q 179 879 149 850 q 253 924 210 907 q 351 947 297 941 l 351 1055 z "},"¢":{"ha":777,"x_min":110,"x_max":689,"o":"m 244 503 q 281 305 244 379 q 396 210 319 231 l 396 818 q 335 792 363 812 q 287 736 307 773 q 255 642 267 700 q 244 503 244 584 m 465 0 l 396 0 l 396 122 q 280 153 333 129 q 190 222 228 178 q 131 336 152 267 q 110 501 110 406 q 132 676 110 604 q 193 794 155 749 q 284 862 232 840 q 396 890 337 885 l 396 991 l 465 991 l 465 890 q 545 877 505 887 q 617 850 585 867 q 669 808 649 833 q 689 750 689 783 q 658 682 689 702 q 566 663 627 663 q 559 717 566 691 q 541 764 553 743 q 510 799 529 785 q 465 818 491 813 l 465 201 q 523 205 494 201 q 578 216 551 210 q 627 230 604 222 q 667 245 650 238 l 667 170 q 578 136 631 151 q 465 119 526 121 l 465 0 z "},"₹":{"ha":772,"x_min":68,"x_max":710,"o":"m 704 0 l 684 0 q 577 5 619 0 q 507 23 536 9 q 457 61 477 37 q 412 125 436 86 l 224 437 l 68 437 l 68 503 l 207 503 q 363 547 313 503 q 418 688 412 591 l 68 688 l 68 754 l 418 754 q 361 887 411 849 q 203 925 311 925 l 68 925 l 68 991 l 710 991 l 710 925 l 479 925 q 540 853 518 896 q 566 754 562 810 l 710 754 l 710 688 l 566 688 q 498 550 555 603 q 363 471 441 497 l 554 170 q 622 86 589 115 q 700 58 656 58 l 704 58 l 704 0 z "},"^":{"ha":777,"x_min":71,"x_max":704,"o":"m 164 370 l 71 370 l 363 991 l 411 991 l 704 370 l 611 370 l 386 864 l 164 370 z "},"_":{"ha":637,"x_min":-7,"x_max":644,"o":"m -7 -115 l 644 -115 l 644 -197 l -7 -197 l -7 -115 z "},"`":{"ha":802,"x_min":267,"x_max":536,"o":"m 536 860 l 536 842 l 484 842 q 423 889 456 861 q 360 947 391 917 q 304 1004 330 977 q 267 1050 279 1031 l 267 1064 l 415 1064 q 440 1014 426 1041 q 471 959 455 986 q 505 906 488 932 q 536 860 522 880 z "},"~":{"ha":779,"x_min":77,"x_max":701,"o":"m 526 374 q 484 382 506 374 q 441 404 463 391 q 401 432 420 416 q 366 461 381 447 q 335 489 350 475 q 306 512 320 502 q 276 528 291 522 q 245 534 261 534 q 185 495 205 534 q 158 374 165 455 l 77 374 q 89 460 81 416 q 117 538 98 504 q 168 595 136 573 q 252 616 201 616 q 298 608 275 616 q 342 585 321 599 q 384 555 364 572 q 419 525 403 539 q 448 499 434 511 q 477 477 463 486 q 505 461 490 467 q 533 456 519 456 q 590 498 572 456 q 618 616 608 540 l 701 616 q 687 530 696 574 q 659 452 677 486 q 607 395 640 417 q 526 374 575 374 z "},"ऀ":{"ha":0,"x_min":-235,"x_max":201,"o":"m 201 1104 q 193 1072 201 1082 q 173 1055 186 1062 q 96 1195 142 1154 q -3 1235 51 1235 q -106 1194 -60 1235 q -174 1067 -153 1154 q -222 1097 -208 1082 q -235 1139 -235 1113 q -177 1263 -235 1200 q -27 1325 -118 1325 q 139 1247 77 1325 q 201 1104 201 1169 m -66 1074 q -47 1120 -66 1101 q 0 1140 -27 1140 q 46 1120 27 1140 q 66 1074 66 1101 q 46 1027 66 1046 q 0 1008 27 1008 q -47 1027 -27 1008 q -66 1074 -66 1046 z "},"ँ":{"ha":0,"x_min":-205,"x_max":231,"o":"m 66 1259 q 47 1213 66 1232 q 0 1193 27 1193 q -46 1213 -27 1193 q -66 1259 -66 1232 q -46 1306 -66 1286 q 0 1325 -27 1325 q 47 1306 27 1325 q 66 1259 66 1286 m -205 1229 q -198 1261 -205 1251 q -178 1278 -191 1271 q -101 1138 -146 1179 q -2 1098 -56 1098 q 102 1139 55 1098 q 170 1265 149 1179 q 217 1236 203 1251 q 231 1194 231 1220 q 172 1070 231 1133 q 22 1008 113 1008 q -143 1086 -81 1008 q -205 1229 -205 1164 z "},"ं":{"ha":0,"x_min":-66,"x_max":66,"o":"m 66 1056 q 47 1009 66 1029 q 0 989 27 989 q -46 1009 -27 989 q -66 1056 -66 1029 q -46 1102 -66 1083 q 0 1122 -27 1122 q 47 1102 27 1122 q 66 1056 66 1083 z "},"ः":{"ha":389,"x_min":123,"x_max":272,"o":"m 123 616 q 145 668 123 646 q 197 690 167 690 q 250 668 228 690 q 272 616 272 646 q 250 564 272 585 q 197 542 228 542 q 145 564 167 542 q 123 616 123 585 m 123 161 q 145 214 123 192 q 197 235 167 235 q 250 214 228 235 q 272 161 272 192 q 250 109 272 131 q 197 87 228 87 q 145 109 167 87 q 123 161 123 131 z "},"ऄ":{"ha":1051,"x_min":54,"x_max":1089,"o":"m 1089 818 l 1085 812 l 910 812 l 910 -8 l 904 -13 l 802 13 l 802 410 q 754 394 777 399 q 709 389 732 389 q 660 393 686 389 q 610 407 635 398 q 642 335 631 372 q 652 260 652 298 q 590 104 652 166 q 421 42 528 42 q 142 202 231 42 q 54 450 54 361 q 67 498 54 486 q 104 513 81 511 q 211 238 132 325 q 392 152 291 152 q 515 195 469 152 q 561 304 561 237 q 533 399 561 355 q 460 463 505 444 q 394 442 431 451 q 314 429 357 433 l 259 535 l 263 542 q 448 591 390 549 q 506 705 506 633 q 468 798 506 766 q 371 830 431 830 q 260 790 300 830 q 219 690 219 749 q 147 712 174 690 q 120 770 120 734 q 173 863 120 820 q 326 905 227 905 q 527 835 449 905 q 605 658 605 765 q 587 574 605 611 q 529 502 570 536 q 591 479 559 486 q 649 472 622 472 q 758 509 714 472 q 802 615 802 546 l 802 812 l 691 812 l 653 896 l 657 902 l 810 902 q 819 933 816 918 q 822 959 822 948 q 770 1025 822 1008 q 621 1057 718 1042 q 365 1115 499 1074 q 231 1274 231 1155 q 234 1303 231 1291 q 243 1326 237 1316 q 362 1220 292 1244 q 549 1175 432 1195 q 791 1105 701 1147 q 905 902 882 1062 l 1051 902 l 1089 818 z "},"अ":{"ha":1051,"x_min":54,"x_max":1089,"o":"m 120 770 q 173 863 120 820 q 326 905 227 905 q 527 835 449 905 q 605 658 605 765 q 587 574 605 611 q 529 502 570 536 q 591 479 559 486 q 649 472 622 472 q 758 509 714 472 q 802 615 802 546 l 802 812 l 691 812 l 653 896 l 657 902 l 1051 902 l 1089 818 l 1085 812 l 910 812 l 910 -8 l 904 -13 l 802 13 l 802 410 q 754 394 777 399 q 709 389 732 389 q 660 393 686 389 q 610 407 635 398 q 642 335 631 372 q 652 260 652 298 q 590 104 652 166 q 421 42 528 42 q 142 202 231 42 q 54 450 54 361 q 67 498 54 486 q 104 513 81 511 q 211 238 132 325 q 392 152 291 152 q 515 195 469 152 q 561 304 561 237 q 533 399 561 355 q 460 463 505 444 q 394 442 431 451 q 314 429 357 433 l 259 535 l 263 542 q 448 591 390 549 q 506 705 506 633 q 468 798 506 766 q 371 830 431 830 q 260 790 300 830 q 219 690 219 749 q 147 712 174 690 q 120 770 120 734 z "},"आ":{"ha":1379,"x_min":54,"x_max":1417,"o":"m 1417 818 l 1413 812 l 1238 812 l 1238 -8 l 1232 -13 l 1129 13 l 1129 812 l 910 812 l 910 -8 l 904 -13 l 802 13 l 802 410 q 754 394 777 399 q 709 389 732 389 q 660 393 686 389 q 610 407 635 398 q 642 335 631 372 q 652 260 652 298 q 590 104 652 166 q 421 42 528 42 q 142 202 231 42 q 54 450 54 361 q 67 498 54 486 q 104 513 81 511 q 211 238 132 325 q 392 152 291 152 q 515 195 469 152 q 561 304 561 237 q 533 399 561 355 q 460 463 505 444 q 394 442 431 451 q 314 429 357 433 l 259 535 l 263 542 q 448 591 390 549 q 506 705 506 633 q 468 798 506 766 q 371 830 431 830 q 260 790 300 830 q 219 690 219 749 q 147 712 174 690 q 120 770 120 734 q 173 863 120 820 q 326 905 227 905 q 527 835 449 905 q 605 658 605 765 q 587 574 605 611 q 529 502 570 536 q 591 479 559 486 q 649 472 622 472 q 758 509 714 472 q 802 615 802 546 l 802 812 l 691 812 l 653 896 l 657 902 l 1379 902 l 1417 818 z "},"इ":{"ha":682,"x_min":-38,"x_max":720,"o":"m 538 600 l 264 600 q 194 582 214 600 q 174 536 174 564 q 194 486 174 505 q 250 468 215 468 q 338 478 281 468 q 428 489 395 489 q 553 422 505 489 q 601 290 601 355 q 527 160 601 212 q 333 101 454 108 q 397 30 364 48 q 477 12 429 12 q 514 15 498 12 q 544 22 529 18 q 555 -5 551 8 q 559 -28 559 -18 q 534 -79 559 -60 q 473 -97 510 -97 q 365 -51 420 -97 q 273 102 310 -5 q 149 146 193 109 q 105 231 105 184 q 130 286 105 269 q 180 303 154 303 q 240 278 215 303 q 285 211 264 254 q 461 244 395 210 q 528 326 528 278 q 516 361 528 346 q 481 376 504 376 q 400 368 462 376 q 309 361 339 361 q 148 443 218 361 q 77 595 77 526 q 109 667 77 637 q 208 696 141 696 l 434 696 q 438 697 437 696 q 439 701 439 699 l 439 812 l 0 812 l -38 896 l -34 902 l 682 902 l 720 818 l 716 812 l 544 812 l 544 606 l 538 600 z "},"ई":{"ha":682,"x_min":-38,"x_max":720,"o":"m 538 600 l 264 600 q 194 582 214 600 q 174 536 174 564 q 194 486 174 505 q 250 468 215 468 q 338 478 281 468 q 428 489 395 489 q 553 422 505 489 q 601 290 601 355 q 527 160 601 212 q 333 101 454 108 q 397 30 364 48 q 477 12 429 12 q 514 15 498 12 q 544 22 529 18 q 555 -5 551 8 q 559 -28 559 -18 q 534 -79 559 -60 q 473 -97 510 -97 q 365 -51 420 -97 q 273 102 310 -5 q 149 146 193 109 q 105 231 105 184 q 130 286 105 269 q 180 303 154 303 q 240 278 215 303 q 285 211 264 254 q 461 244 395 210 q 528 326 528 278 q 516 361 528 346 q 481 376 504 376 q 400 368 462 376 q 309 361 339 361 q 148 443 218 361 q 77 595 77 526 q 109 667 77 637 q 208 696 141 696 l 434 696 q 438 697 437 696 q 439 701 439 699 l 439 812 l 0 812 l -38 896 l -34 902 l 418 902 q 356 985 379 939 q 332 1080 332 1031 q 381 1204 332 1151 q 511 1257 430 1257 q 622 1220 578 1257 q 665 1138 665 1183 q 665 1128 665 1133 q 663 1118 664 1122 q 602 1153 633 1143 q 544 1163 571 1163 q 457 1129 488 1163 q 426 1044 426 1096 q 447 967 426 1002 q 503 902 467 931 l 682 902 l 720 818 l 716 812 l 544 812 l 544 606 l 538 600 z "},"उ":{"ha":758,"x_min":-38,"x_max":796,"o":"m 792 812 l 560 812 q 614 726 597 766 q 631 646 631 686 q 612 568 631 604 q 549 499 593 532 q 646 397 610 457 q 683 267 683 337 q 619 112 683 176 q 443 47 555 47 q 148 218 242 47 q 54 480 54 389 q 66 528 54 512 q 106 547 78 544 q 221 255 137 352 q 414 157 305 157 q 539 200 490 157 q 589 314 589 243 q 557 409 589 370 q 477 466 526 447 q 406 450 445 455 q 323 444 368 444 l 277 555 l 281 562 q 470 600 404 562 q 536 699 536 637 q 507 775 536 739 q 416 812 477 812 l 0 812 l -38 896 l -34 902 l 758 902 l 796 818 l 792 812 z "},"ऊ":{"ha":1029,"x_min":-38,"x_max":1067,"o":"m 560 812 q 614 726 597 766 q 631 646 631 686 q 612 568 631 604 q 549 499 593 532 q 575 481 563 490 q 599 463 588 472 q 688 538 648 515 q 774 562 728 562 q 931 485 865 562 q 997 290 997 407 q 956 141 997 197 q 865 85 915 85 q 811 102 836 85 q 772 144 785 119 q 870 227 831 172 q 908 353 908 283 q 883 443 908 408 q 815 477 858 477 q 741 449 779 477 q 663 368 703 422 q 677 320 672 345 q 683 268 683 294 q 619 112 683 176 q 443 47 555 47 q 148 218 242 47 q 54 480 54 389 q 66 528 54 512 q 106 547 78 544 q 221 255 137 352 q 414 157 305 157 q 539 200 490 157 q 589 314 589 243 q 557 409 589 370 q 477 466 526 447 q 406 450 445 455 q 323 444 368 444 l 277 555 l 281 562 q 470 600 404 562 q 536 699 536 637 q 507 775 536 739 q 416 812 477 812 l 0 812 l -38 896 l -34 902 l 1029 902 l 1067 818 l 1063 812 l 560 812 z "},"ऋ":{"ha":1160,"x_min":-38,"x_max":1198,"o":"m 647 812 l 647 484 q 750 504 703 488 q 838 548 798 520 q 816 592 823 572 q 809 629 809 612 q 831 685 809 662 q 892 709 854 709 q 970 676 939 709 q 1002 602 1002 643 q 988 549 1002 576 q 949 498 975 523 q 1045 357 1014 418 q 1077 243 1077 297 q 1035 133 1077 174 q 940 92 993 92 q 872 117 899 92 q 841 183 846 142 q 943 209 897 183 q 989 288 989 235 q 973 346 989 310 q 900 460 957 382 q 785 408 851 429 q 647 385 720 387 l 647 -8 l 641 -13 l 538 13 l 538 354 q 377 232 449 291 q 233 107 305 174 l 150 187 l 150 195 q 314 332 229 266 q 503 465 400 398 q 356 566 410 535 q 266 596 303 596 q 194 569 229 596 q 132 492 160 541 q 81 535 99 512 q 64 583 64 558 q 104 655 64 619 q 220 691 144 691 q 333 658 273 691 q 538 517 394 625 l 538 812 l 0 812 l -38 896 l -34 902 l 1160 902 l 1198 818 l 1194 812 l 647 812 z "},"ऌ":{"ha":957,"x_min":-38,"x_max":995,"o":"m 728 812 l 728 608 q 847 522 798 587 q 895 366 895 456 q 878 282 895 321 q 813 184 861 243 q 723 79 764 123 q 682 -2 682 34 q 697 -33 682 -23 q 736 -43 712 -43 q 825 -18 774 -43 q 903 59 875 7 q 941 31 922 52 q 960 -18 960 9 q 913 -94 960 -58 q 801 -129 866 -129 q 656 -74 718 -129 q 594 39 594 -20 q 633 138 594 87 q 704 226 672 189 q 784 332 756 286 q 812 425 812 378 q 784 498 812 473 q 715 523 756 524 q 598 472 662 522 q 482 299 534 422 l 475 297 l 385 354 q 411 414 397 386 q 439 465 425 442 q 370 517 405 500 q 302 534 335 534 q 210 493 245 534 q 175 389 175 452 q 236 208 175 310 q 414 23 297 106 q 399 2 410 10 q 375 -5 388 -5 q 193 131 317 -5 q 69 424 69 267 q 120 569 69 512 q 260 627 171 627 q 365 601 313 627 q 476 513 417 576 q 550 578 511 553 q 627 611 589 602 l 627 812 l 0 812 l -38 896 l -34 902 l 957 902 l 995 818 l 991 812 l 728 812 z "},"ऍ":{"ha":764,"x_min":-38,"x_max":802,"o":"m 139 1229 q 146 1261 139 1251 q 167 1278 154 1271 q 243 1138 198 1179 q 342 1098 289 1098 q 446 1139 399 1098 q 514 1265 493 1179 q 562 1236 548 1251 q 575 1194 575 1220 q 516 1070 575 1133 q 367 1008 458 1008 q 201 1086 263 1008 q 139 1229 139 1164 m 616 812 l 616 479 q 593 399 616 429 q 532 369 570 369 q 480 384 505 369 q 434 421 455 398 q 489 465 471 435 q 507 530 507 494 l 507 812 l 193 812 l 192 455 q 254 358 192 388 q 435 273 316 329 q 669 135 616 190 q 723 26 723 79 q 691 -63 723 -31 q 623 -96 660 -96 q 568 -79 594 -96 q 528 -40 543 -62 q 596 11 576 -15 q 616 68 616 37 q 591 114 616 94 q 465 180 566 134 q 169 339 255 277 q 83 534 83 401 l 83 812 l 0 812 l -38 896 l -34 902 l 764 902 l 802 818 l 798 812 l 616 812 z "},"ऎ":{"ha":764,"x_min":-54,"x_max":802,"o":"m 532 369 q 480 384 505 369 q 434 421 455 398 q 489 465 471 435 q 507 530 507 494 l 507 812 l 193 812 l 192 455 q 254 358 192 388 q 435 273 316 329 q 669 135 616 190 q 723 26 723 79 q 691 -63 723 -31 q 623 -96 660 -96 q 568 -79 594 -96 q 528 -40 543 -62 q 596 11 576 -15 q 616 68 616 37 q 591 114 616 94 q 465 180 566 134 q 169 339 255 277 q 83 534 83 401 l 83 812 l 0 812 l -38 896 l -34 902 l 511 902 q 520 933 517 918 q 524 960 524 948 q 471 1025 524 1008 q 322 1057 418 1042 q 74 1115 201 1075 q -54 1274 -54 1156 q -51 1303 -54 1291 q -42 1326 -47 1316 q 72 1220 5 1244 q 250 1175 139 1195 q 494 1104 406 1147 q 606 902 583 1062 l 764 902 l 802 818 l 798 812 l 616 812 l 616 479 q 593 399 616 429 q 532 369 570 369 z "},"ए":{"ha":764,"x_min":-38,"x_max":802,"o":"m 616 812 l 616 479 q 593 399 616 429 q 532 369 570 369 q 480 384 505 369 q 434 421 455 398 q 489 465 471 435 q 507 530 507 494 l 507 812 l 193 812 l 192 455 q 254 358 192 388 q 435 273 316 329 q 669 135 616 190 q 723 26 723 79 q 691 -63 723 -31 q 623 -96 660 -96 q 568 -79 594 -96 q 528 -40 543 -62 q 596 11 576 -15 q 616 68 616 37 q 591 114 616 94 q 465 180 566 134 q 169 339 255 277 q 83 534 83 401 l 83 812 l 0 812 l -38 896 l -34 902 l 764 902 l 802 818 l 798 812 l 616 812 z "},"ऐ":{"ha":764,"x_min":-38,"x_max":802,"o":"m 532 369 q 480 384 505 369 q 434 421 455 398 q 489 465 471 435 q 507 530 507 494 l 507 812 l 193 812 l 192 455 q 254 358 192 388 q 435 273 316 329 q 669 135 616 190 q 723 26 723 79 q 691 -63 723 -31 q 623 -96 660 -96 q 568 -79 594 -96 q 528 -40 543 -62 q 596 11 576 -15 q 616 68 616 37 q 591 114 616 94 q 465 180 566 134 q 169 339 254 277 q 83 534 83 401 l 83 812 l 0 812 l -38 896 l -34 902 l 517 902 q 310 1138 380 1076 q 180 1201 239 1201 q 117 1183 143 1201 q 74 1131 91 1165 q 26 1162 45 1141 q 7 1213 7 1184 q 40 1276 7 1249 q 134 1303 73 1303 q 299 1232 202 1303 q 596 902 395 1161 l 764 902 l 802 818 l 798 812 l 616 812 l 616 479 q 593 399 616 429 q 532 369 570 369 z "},"ऑ":{"ha":1379,"x_min":54,"x_max":1417,"o":"m 799 1229 q 806 1261 799 1251 q 827 1278 814 1271 q 903 1138 858 1179 q 1002 1098 949 1098 q 1106 1139 1059 1098 q 1174 1265 1153 1179 q 1221 1236 1208 1251 q 1235 1194 1235 1220 q 1176 1070 1235 1133 q 1027 1008 1118 1008 q 861 1086 923 1008 q 799 1229 799 1164 m 1417 818 l 1413 812 l 1238 812 l 1238 -8 l 1232 -13 l 1129 13 l 1129 812 l 910 812 l 910 -8 l 904 -13 l 802 13 l 802 410 q 754 394 777 399 q 709 389 732 389 q 660 393 686 389 q 610 407 635 398 q 642 335 631 372 q 652 260 652 298 q 590 104 652 166 q 421 42 528 42 q 142 202 231 42 q 54 450 54 361 q 67 498 54 486 q 104 513 81 511 q 211 238 132 325 q 392 152 291 152 q 515 195 469 152 q 561 304 561 237 q 533 399 561 355 q 460 463 505 444 q 394 442 431 451 q 314 429 357 433 l 259 535 l 263 542 q 448 591 390 549 q 506 705 506 633 q 468 798 506 766 q 371 830 431 830 q 260 790 300 830 q 219 690 219 749 q 147 712 174 690 q 120 770 120 734 q 173 863 120 820 q 326 905 227 905 q 527 835 449 905 q 605 658 605 765 q 587 574 605 611 q 529 502 570 536 q 591 479 559 486 q 649 472 622 472 q 758 509 714 472 q 802 615 802 546 l 802 812 l 691 812 l 653 896 l 657 902 l 1379 902 l 1417 818 z "},"ऒ":{"ha":1379,"x_min":54,"x_max":1417,"o":"m 1417 818 l 1413 812 l 1238 812 l 1238 -8 l 1232 -13 l 1129 13 l 1129 812 l 910 812 l 910 -8 l 904 -13 l 802 13 l 802 410 q 754 394 777 399 q 709 389 732 389 q 660 393 686 389 q 610 407 635 398 q 642 335 631 372 q 652 260 652 298 q 590 104 652 166 q 421 42 528 42 q 142 202 231 42 q 54 450 54 361 q 67 498 54 486 q 104 513 81 511 q 211 238 132 325 q 392 152 291 152 q 515 195 469 152 q 561 304 561 237 q 533 399 561 355 q 460 463 505 444 q 394 442 431 451 q 314 429 357 433 l 259 535 l 263 542 q 448 591 390 549 q 506 705 506 633 q 468 798 506 766 q 371 830 431 830 q 260 790 300 830 q 219 690 219 749 q 147 712 174 690 q 120 770 120 734 q 173 863 120 820 q 326 905 227 905 q 527 835 449 905 q 605 658 605 765 q 587 574 605 611 q 529 502 570 536 q 591 479 559 486 q 649 472 622 472 q 758 509 714 472 q 802 615 802 546 l 802 812 l 691 812 l 653 896 l 657 902 l 1140 902 q 1149 933 1146 918 q 1152 959 1152 948 q 1100 1025 1152 1008 q 951 1057 1048 1042 q 695 1115 829 1074 q 561 1274 561 1155 q 564 1303 561 1291 q 573 1326 568 1316 q 692 1220 622 1244 q 879 1175 762 1195 q 1122 1105 1031 1147 q 1235 902 1212 1062 l 1379 902 l 1417 818 z "},"ओ":{"ha":1379,"x_min":54,"x_max":1417,"o":"m 1417 818 l 1413 812 l 1238 812 l 1238 -8 l 1232 -13 l 1129 13 l 1129 812 l 910 812 l 910 -8 l 904 -13 l 802 13 l 802 410 q 754 394 777 399 q 709 389 732 389 q 660 393 686 389 q 610 407 635 398 q 642 335 631 372 q 652 260 652 298 q 590 104 652 166 q 421 42 528 42 q 142 202 231 42 q 54 450 54 361 q 67 498 54 486 q 104 513 81 511 q 211 238 132 325 q 392 152 291 152 q 515 195 469 152 q 561 304 561 237 q 533 399 561 355 q 460 463 505 444 q 394 442 431 451 q 314 429 357 433 l 259 535 l 263 542 q 448 591 390 549 q 506 705 506 633 q 468 798 506 766 q 371 830 431 830 q 260 790 300 830 q 219 690 219 749 q 147 712 174 690 q 120 770 120 734 q 173 863 120 820 q 326 905 227 905 q 527 835 449 905 q 605 658 605 765 q 587 574 605 611 q 529 502 570 536 q 591 479 559 486 q 649 472 622 472 q 758 509 714 472 q 802 615 802 546 l 802 812 l 691 812 l 653 896 l 657 902 l 1135 902 q 918 1146 985 1090 q 798 1201 851 1201 q 735 1183 761 1201 q 692 1131 709 1165 q 644 1162 663 1140 q 625 1211 625 1183 q 658 1274 625 1244 q 754 1303 692 1303 q 916 1233 819 1303 q 1214 902 1013 1162 l 1379 902 l 1417 818 z "},"औ":{"ha":1379,"x_min":54,"x_max":1417,"o":"m 1417 818 l 1413 812 l 1238 812 l 1238 -8 l 1232 -13 l 1129 13 l 1129 812 l 910 812 l 910 -8 l 904 -13 l 802 13 l 802 410 q 754 394 777 399 q 709 389 732 389 q 660 393 686 389 q 610 407 635 398 q 642 335 631 372 q 652 260 652 298 q 590 104 652 166 q 421 42 528 42 q 142 202 231 42 q 54 450 54 361 q 67 498 54 486 q 104 513 81 511 q 211 238 132 325 q 392 152 291 152 q 515 195 469 152 q 561 304 561 237 q 533 399 561 355 q 460 463 505 444 q 394 442 431 451 q 314 429 357 433 l 259 535 l 263 542 q 448 591 390 549 q 506 705 506 633 q 468 798 506 766 q 371 830 431 830 q 260 790 300 830 q 219 690 219 749 q 147 712 174 690 q 120 770 120 734 q 173 863 120 820 q 326 905 227 905 q 527 835 449 905 q 605 658 605 765 q 587 574 605 611 q 529 502 570 536 q 591 479 559 486 q 649 472 622 472 q 758 509 714 472 q 802 615 802 546 l 802 812 l 691 812 l 653 896 l 657 902 l 1131 902 q 946 1033 1034 989 q 809 1078 859 1078 q 754 1059 777 1078 q 719 1009 732 1040 q 661 1040 680 1019 q 643 1087 643 1061 q 673 1149 643 1124 q 749 1175 704 1175 q 921 1121 816 1175 q 1136 980 1025 1067 q 1036 1215 1074 1166 q 964 1264 998 1264 q 921 1252 939 1264 q 889 1221 903 1240 q 844 1248 863 1231 q 826 1292 826 1265 q 851 1346 826 1321 q 926 1371 876 1371 q 1063 1288 987 1371 q 1227 902 1139 1205 l 1379 902 l 1417 818 z "},"क":{"ha":1046,"x_min":-38,"x_max":1084,"o":"m 497 429 q 452 529 497 486 q 335 572 406 572 q 214 523 260 572 q 168 405 168 474 q 215 288 168 334 q 330 243 261 243 q 446 282 395 243 q 497 385 497 322 l 497 429 m 606 812 l 606 565 q 676 614 638 597 q 759 632 713 632 q 919 560 851 632 q 987 359 987 488 q 943 194 987 252 q 851 136 899 136 q 800 152 825 136 q 760 195 775 169 q 866 296 829 231 q 903 425 903 361 q 875 514 903 482 q 802 546 847 546 q 673 487 740 546 q 606 336 606 429 l 606 -8 l 600 -13 l 497 13 l 497 189 q 435 158 465 167 q 376 149 405 149 q 169 238 271 149 q 67 452 67 328 q 129 607 67 545 q 286 669 191 669 q 390 648 334 669 q 497 574 447 627 l 497 812 l 0 812 l -38 896 l -34 902 l 1046 902 l 1084 818 l 1080 812 l 606 812 z "},"ख":{"ha":1062,"x_min":-38,"x_max":1100,"o":"m 812 441 q 771 533 812 490 q 664 576 730 576 q 564 535 601 576 q 528 437 528 494 q 572 334 528 371 q 671 297 616 297 q 771 333 729 297 q 812 417 812 369 l 812 441 m 921 812 l 921 -8 l 915 -13 l 812 13 l 812 245 q 760 221 783 229 q 711 214 736 214 q 523 296 613 214 q 433 486 433 377 q 485 617 433 565 q 621 669 537 669 q 722 646 673 669 q 812 576 770 623 l 812 812 l 286 812 q 333 688 315 749 q 351 565 351 626 q 307 413 351 473 q 178 328 263 353 q 377 150 258 219 q 653 58 496 81 q 622 12 644 26 q 564 -3 600 -3 q 236 158 419 -3 q 53 444 53 318 q 76 506 53 484 q 142 528 100 528 q 185 523 163 528 q 231 509 208 518 q 253 557 246 530 q 260 618 260 584 q 250 709 260 659 q 219 812 241 760 l 0 812 l -38 896 l -34 902 l 1062 902 l 1100 818 l 1096 812 l 921 812 z "},"ग":{"ha":842,"x_min":-37,"x_max":880,"o":"m 702 812 l 702 -8 l 696 -13 l 593 13 l 593 812 l 298 812 l 298 355 q 283 273 298 300 q 238 246 268 246 q 123 311 185 246 q 62 414 62 376 q 74 440 62 429 q 115 452 87 452 l 193 452 l 193 812 l 1 812 l -37 896 l -33 902 l 842 902 l 880 818 l 876 812 l 702 812 z "},"घ":{"ha":855,"x_min":-38,"x_max":893,"o":"m 715 812 l 715 -8 l 709 -13 l 606 13 l 606 196 q 528 161 568 173 q 446 150 488 150 q 254 222 332 150 q 176 387 176 294 q 185 448 176 418 q 212 504 195 478 q 104 595 143 546 q 65 715 65 645 q 72 764 65 741 q 93 812 78 787 l 0 812 l -38 896 l -34 902 l 855 902 l 893 818 l 889 812 l 715 812 m 606 812 l 315 812 q 211 768 252 812 q 171 672 171 725 q 194 604 171 633 q 257 553 216 574 q 321 595 285 577 q 397 623 357 614 l 473 534 l 471 527 q 318 450 371 500 q 265 344 265 399 q 299 268 265 298 q 391 238 332 238 q 531 282 457 238 q 606 414 606 327 l 606 812 z "},"ङ":{"ha":808,"x_min":-38,"x_max":846,"o":"m 618 519 q 637 565 618 546 q 683 584 656 584 q 728 565 709 584 q 747 519 747 546 q 728 473 747 492 q 683 454 709 454 q 637 473 656 454 q 618 519 618 492 m 571 812 l 571 606 l 566 600 l 311 600 q 236 582 257 600 q 214 534 214 563 q 236 481 214 501 q 301 461 258 461 q 378 468 331 461 q 452 475 425 475 q 585 409 525 475 q 644 249 644 343 q 590 116 644 164 q 440 67 535 67 q 170 183 273 67 q 62 363 66 300 q 68 396 60 382 q 90 418 75 410 q 235 234 152 294 q 404 173 318 173 q 522 207 471 173 q 573 292 573 240 q 553 344 573 323 q 499 366 533 366 q 430 360 479 366 q 355 354 382 354 q 198 428 271 354 q 125 587 125 501 q 157 667 125 637 q 256 696 189 696 l 461 696 q 465 697 464 696 q 467 701 467 699 l 467 812 l 0 812 l -38 896 l -34 902 l 808 902 l 846 818 l 842 812 l 571 812 z "},"च":{"ha":896,"x_min":-38,"x_max":934,"o":"m 755 812 l 755 -8 l 749 -13 l 647 13 l 647 224 q 562 183 605 197 q 473 170 518 170 q 269 249 349 170 q 189 425 189 328 q 202 495 189 461 q 241 563 215 529 l 80 563 l 42 647 l 46 653 l 506 653 l 544 569 l 540 563 l 503 563 q 340 507 401 563 q 279 383 279 451 q 319 291 279 328 q 429 253 360 253 q 582 312 516 253 q 647 448 647 371 l 647 812 l 0 812 l -38 896 l -34 902 l 896 902 l 934 818 l 930 812 l 755 812 z "},"छ":{"ha":929,"x_min":-39,"x_max":967,"o":"m 720 812 l 720 707 q 816 619 783 683 q 850 471 850 555 q 739 175 850 309 q 468 41 627 41 q 263 120 345 41 q 182 289 182 198 q 190 345 182 316 q 214 396 199 373 q 112 480 145 431 q 78 582 78 530 q 127 694 78 650 q 248 738 177 738 q 325 715 294 738 q 376 642 355 692 q 223 614 269 642 q 177 541 177 586 q 198 486 177 510 q 262 444 218 463 q 323 476 289 463 q 397 494 357 490 l 472 406 l 469 399 q 320 339 369 383 q 271 243 271 295 q 313 163 271 192 q 414 134 354 134 q 572 184 497 134 q 696 311 647 235 q 565 450 605 381 q 525 578 525 519 q 551 667 525 630 q 625 715 578 703 l 625 812 l -1 812 l -39 896 l -35 902 l 929 902 l 967 818 l 963 812 l 720 812 m 730 366 q 756 447 747 405 q 766 529 766 490 q 749 607 766 581 q 702 632 733 632 q 643 604 667 632 q 620 536 620 575 q 646 455 620 498 q 730 366 673 412 z "},"ज":{"ha":968,"x_min":-34,"x_max":1006,"o":"m 827 812 l 827 -8 l 821 -13 l 719 13 l 719 536 l 493 536 q 555 440 535 490 q 575 343 575 391 q 519 206 575 258 q 380 154 464 154 q 140 315 214 154 q 65 560 66 475 q 77 609 64 595 q 120 626 90 623 q 207 351 145 437 q 351 264 269 264 q 443 297 404 264 q 481 392 481 330 q 445 492 481 448 q 339 536 408 536 l 301 620 l 305 626 l 719 626 l 719 812 l 4 812 l -34 896 l -30 902 l 968 902 l 1006 818 l 1002 812 l 827 812 z "},"झ":{"ha":1020,"x_min":-35,"x_max":1058,"o":"m 526 606 l 521 600 l 267 600 q 197 582 217 600 q 176 536 176 564 q 197 486 176 505 q 254 468 217 468 q 340 476 282 468 q 429 484 398 484 q 474 477 453 484 q 514 463 495 471 q 567 443 541 448 q 614 438 592 438 q 727 475 683 438 q 770 581 770 513 l 770 812 l 526 812 l 526 606 m 879 812 l 879 -8 l 873 -13 l 770 13 l 770 378 q 725 360 746 366 q 680 355 704 355 q 632 359 656 355 q 585 370 608 363 q 600 329 595 347 q 604 294 604 311 q 530 159 604 210 q 336 101 456 109 q 399 30 367 48 q 479 12 432 12 q 516 15 501 12 q 547 22 532 18 q 558 -5 554 8 q 562 -28 562 -18 q 537 -79 562 -60 q 476 -97 513 -97 q 368 -51 423 -97 q 276 102 313 -5 q 152 146 196 109 q 108 231 108 184 q 132 286 108 269 q 183 303 157 303 q 242 278 218 303 q 288 211 267 254 q 462 243 394 210 q 530 328 530 276 q 519 363 530 348 q 483 379 507 379 q 403 373 465 379 q 313 366 341 366 q 150 446 220 366 q 80 595 80 526 q 112 667 80 637 q 211 696 144 696 l 416 696 q 420 697 419 696 q 422 701 422 699 l 422 812 l 3 812 l -35 896 l -31 902 l 1020 902 l 1058 818 l 1054 812 l 879 812 z "},"ञ":{"ha":1042,"x_min":-38,"x_max":1080,"o":"m 902 812 l 902 -8 l 896 -13 l 793 13 l 793 333 q 774 329 783 330 q 758 328 766 328 q 698 342 727 328 q 643 383 669 357 q 579 202 640 273 q 410 132 519 132 q 154 275 237 132 q 70 504 70 418 q 81 547 70 532 q 121 563 92 563 q 214 320 147 399 q 374 242 281 242 q 504 292 452 242 q 557 422 557 341 q 522 529 557 488 q 431 571 487 571 q 370 555 402 571 q 311 490 337 538 q 259 522 276 499 q 242 569 242 544 q 278 641 242 608 q 376 674 315 674 q 522 620 453 674 q 622 484 590 565 q 668 448 646 458 q 712 438 690 438 q 768 458 742 438 q 793 534 793 478 l 793 812 l 0 812 l -38 896 l -34 902 l 1042 902 l 1080 818 l 1076 812 l 902 812 z "},"ट":{"ha":718,"x_min":-38,"x_max":755,"o":"m 571 812 l 571 561 l 566 555 l 416 555 q 234 497 300 555 q 169 351 169 439 q 223 211 169 272 q 380 151 278 151 q 523 191 460 151 q 611 295 585 231 q 660 264 644 285 q 675 218 675 244 q 603 109 675 157 q 430 62 530 62 q 173 169 277 62 q 68 401 68 277 q 149 581 68 507 q 378 655 230 655 l 461 655 q 465 656 464 655 q 467 661 467 658 l 467 812 l 0 812 l -38 896 l -34 902 l 718 902 l 755 818 l 751 812 l 571 812 z "},"ठ":{"ha":772,"x_min":-38,"x_max":810,"o":"m 537 812 l 537 600 q 659 480 610 553 q 709 319 709 406 q 626 131 709 208 q 422 55 543 55 q 166 163 273 55 q 59 399 59 271 q 136 579 59 503 q 348 655 213 655 l 427 655 q 431 656 430 655 q 433 661 433 658 l 433 812 l 0 812 l -38 896 l -34 902 l 772 902 l 810 818 l 806 812 l 537 812 m 613 368 q 563 498 613 440 q 397 555 512 555 q 219 495 282 555 q 155 351 155 435 q 215 205 155 267 q 371 144 274 144 q 540 207 467 144 q 613 368 613 270 z "},"ड":{"ha":713,"x_min":-38,"x_max":751,"o":"m 585 812 l 585 606 l 579 600 l 311 600 q 236 582 257 600 q 214 534 214 563 q 236 481 214 501 q 301 461 258 461 q 378 468 331 461 q 452 475 425 475 q 585 409 525 475 q 644 249 644 343 q 590 116 644 164 q 440 67 535 67 q 170 183 273 67 q 62 363 66 300 q 68 396 60 382 q 90 418 75 410 q 235 234 152 294 q 404 173 318 173 q 522 207 471 173 q 573 292 573 240 q 553 344 573 323 q 499 366 533 366 q 430 360 479 366 q 355 354 382 354 q 198 428 271 354 q 125 587 125 501 q 157 667 125 637 q 256 696 189 696 l 475 696 q 479 697 477 696 q 480 701 480 699 l 480 812 l 0 812 l -38 896 l -34 902 l 713 902 l 751 818 l 747 812 l 585 812 z "},"ढ":{"ha":717,"x_min":-39,"x_max":755,"o":"m 570 812 l 570 568 l 565 562 l 415 562 q 234 502 299 562 q 168 352 168 441 q 227 199 168 268 q 396 130 286 130 q 429 132 411 130 q 463 138 446 134 q 392 231 413 189 q 372 313 372 273 q 409 409 372 374 q 500 444 446 444 q 627 387 575 444 q 679 252 679 329 q 608 102 679 162 q 435 41 537 41 q 180 155 289 41 q 72 402 72 269 q 153 586 72 511 q 380 662 233 662 l 460 662 q 465 663 463 662 q 466 667 466 665 l 466 812 l -1 812 l -39 896 l -35 902 l 717 902 l 755 818 l 751 812 l 570 812 m 610 288 q 591 340 610 321 q 544 360 572 360 q 489 335 512 360 q 465 273 465 311 q 477 220 465 248 q 515 159 488 192 q 584 216 558 181 q 610 288 610 252 z "},"ण":{"ha":964,"x_min":-38,"x_max":1002,"o":"m 823 812 l 823 -8 l 817 -13 l 715 13 l 715 812 l 549 812 l 549 428 q 494 292 549 345 q 358 238 439 238 q 172 319 256 238 q 87 512 87 400 l 87 812 l 0 812 l -38 896 l -34 902 l 964 902 l 1002 818 l 998 812 l 823 812 m 196 812 l 196 454 q 230 354 196 388 q 313 321 264 321 q 406 361 368 321 q 444 475 444 401 l 444 812 l 196 812 z "},"त":{"ha":808,"x_min":-38,"x_max":846,"o":"m 667 812 l 667 -8 l 661 -13 l 559 13 l 559 528 l 297 528 q 191 485 222 528 q 159 382 159 443 q 214 195 159 296 q 361 14 268 94 q 347 -6 357 1 q 326 -12 336 -12 q 165 128 271 -12 q 58 427 58 269 q 106 572 58 517 q 248 626 154 626 l 559 626 l 559 812 l 0 812 l -38 896 l -34 902 l 808 902 l 846 818 l 842 812 l 667 812 z "},"थ":{"ha":909,"x_min":53,"x_max":947,"o":"m 53 804 q 99 904 53 867 q 208 941 145 941 q 385 860 304 941 q 465 667 465 780 q 405 511 465 579 q 225 401 346 444 q 341 300 277 329 q 458 272 405 272 q 600 324 540 272 q 661 461 661 376 l 661 812 l 529 812 l 491 896 l 495 902 l 909 902 l 947 818 l 943 812 l 769 812 l 769 -8 l 763 -13 l 661 13 l 661 214 q 589 176 626 189 q 507 163 552 163 q 298 237 404 163 q 98 475 191 310 l 102 481 q 304 581 239 520 q 370 722 370 641 q 335 820 370 785 q 251 854 301 854 q 182 832 210 854 q 155 770 155 810 q 181 703 155 736 q 271 645 208 670 q 255 631 266 637 q 224 625 244 625 q 109 680 164 625 q 53 804 53 734 z "},"द":{"ha":718,"x_min":-38,"x_max":755,"o":"m 566 555 l 416 555 q 234 497 300 555 q 169 351 169 438 q 222 211 169 274 q 376 149 276 149 q 437 155 408 149 q 490 174 467 162 q 468 211 475 193 q 460 247 460 228 q 486 311 460 284 q 551 338 511 338 q 626 304 598 338 q 654 230 654 271 q 641 174 654 201 q 607 129 627 148 q 681 29 663 67 q 699 -41 699 -9 q 675 -111 699 -85 q 618 -137 652 -137 q 567 -118 589 -137 q 532 -66 545 -100 q 591 -38 569 -57 q 613 6 613 -18 q 601 44 613 22 q 561 95 589 65 q 497 71 532 80 q 420 62 461 62 q 174 170 276 62 q 73 403 73 277 q 146 577 73 500 q 381 655 220 655 l 461 655 q 465 656 464 655 q 467 661 467 658 l 467 812 l 0 812 l -38 896 l -34 902 l 718 902 l 755 818 l 751 812 l 571 812 l 571 561 l 566 555 z "},"ध":{"ha":892,"x_min":68,"x_max":930,"o":"m 751 812 l 751 -8 l 745 -13 l 643 13 l 643 195 q 566 161 604 172 q 484 150 527 150 q 280 225 362 150 q 199 393 199 300 q 212 467 199 430 q 249 532 225 504 q 113 654 158 589 q 68 782 68 720 q 112 893 68 846 q 230 941 156 941 q 354 893 304 941 q 404 787 404 845 q 390 745 404 753 q 367 737 376 737 q 328 821 359 798 q 267 844 297 844 q 200 815 227 844 q 174 743 174 785 q 203 657 174 701 q 300 576 233 614 q 362 606 328 594 q 434 623 396 618 l 509 535 l 507 528 q 344 464 400 511 q 288 355 288 416 q 326 271 288 304 q 428 238 363 238 q 570 281 496 238 q 643 414 643 324 l 643 812 l 511 812 l 473 896 l 477 902 l 892 902 l 930 818 l 926 812 l 751 812 z "},"न":{"ha":762,"x_min":-37,"x_max":800,"o":"m 621 812 l 621 -8 l 615 -13 l 513 13 l 513 480 l 244 480 l 244 382 q 233 341 244 353 q 207 328 221 328 q 103 395 168 328 q 39 517 39 463 q 75 567 39 555 q 161 578 111 578 l 513 578 l 513 812 l 1 812 l -37 896 l -33 902 l 762 902 l 800 818 l 795 812 l 621 812 z "},"ऩ":{"ha":758,"x_min":-41,"x_max":795,"o":"m 617 812 l 617 -8 l 611 -13 l 509 13 l 509 480 l 240 480 l 240 382 q 229 341 240 353 q 203 328 217 328 q 99 395 164 328 q 35 517 35 463 q 71 567 35 555 q 157 578 106 578 l 509 578 l 509 812 l -3 812 l -41 896 l -37 902 l 758 902 l 795 818 l 791 812 l 617 812 m 205 52 q 224 98 205 79 q 270 117 243 117 q 315 98 296 117 q 334 52 334 79 q 315 6 334 25 q 270 -13 296 -13 q 224 6 243 -13 q 205 52 205 25 z "},"प":{"ha":753,"x_min":-39,"x_max":791,"o":"m 612 812 l 612 -8 l 606 -13 l 503 13 l 503 286 q 428 250 465 261 q 353 238 390 238 q 168 320 250 238 q 86 512 86 401 l 86 812 l -1 812 l -39 896 l -35 902 l 753 902 l 791 818 l 787 812 l 612 812 m 195 812 l 195 454 q 226 355 195 389 q 312 321 258 321 q 444 375 385 321 q 503 509 503 430 l 503 812 l 195 812 z "},"फ":{"ha":1006,"x_min":-36,"x_max":1044,"o":"m 198 812 l 198 448 q 224 358 198 389 q 297 328 250 328 q 413 374 359 328 q 466 488 466 421 l 466 812 l 198 812 m 724 639 q 881 573 812 639 q 949 378 949 507 q 905 214 949 273 q 812 156 861 156 q 761 173 786 156 q 721 215 736 189 q 827 312 789 250 q 864 439 864 375 q 838 523 864 494 q 767 553 812 553 q 639 496 704 553 q 574 351 574 440 l 574 -8 l 568 -13 l 466 13 l 466 283 q 399 254 432 263 q 337 245 367 245 q 165 322 241 245 q 90 505 90 399 l 90 812 l 2 812 l -36 896 l -32 902 l 1006 902 l 1044 818 l 1040 812 l 574 812 l 574 576 q 644 623 607 608 q 724 639 682 639 z "},"ब":{"ha":787,"x_min":-38,"x_max":825,"o":"m 646 812 l 646 -8 l 640 -13 l 538 13 l 538 201 q 452 160 495 172 q 374 149 410 149 q 158 238 262 149 q 54 452 54 328 q 125 616 54 550 q 304 683 197 683 q 426 658 364 683 q 538 580 487 633 l 538 812 l 0 812 l -38 896 l -34 902 l 787 902 l 825 818 l 821 812 l 646 812 m 538 419 l 538 442 q 484 544 538 503 q 353 585 431 585 q 307 581 330 585 q 264 568 283 576 l 484 300 q 523 354 509 323 q 538 419 538 385 m 155 405 q 202 286 155 334 q 326 237 250 237 q 376 243 350 237 q 422 259 401 248 l 201 525 q 167 470 179 501 q 155 405 155 439 z "},"भ":{"ha":938,"x_min":46,"x_max":976,"o":"m 217 633 q 102 688 157 633 q 46 812 46 742 q 83 903 46 866 q 180 941 119 941 q 341 859 271 941 q 410 660 410 778 l 410 450 l 689 450 l 689 812 l 498 812 l 460 896 l 464 902 l 938 902 l 976 818 l 972 812 l 798 812 l 798 -8 l 791 -13 l 689 13 l 689 351 l 410 351 l 410 253 q 399 212 410 224 q 373 199 387 199 q 270 267 334 199 q 205 389 205 334 q 235 435 205 423 q 303 449 264 448 l 303 725 q 283 825 303 795 q 224 854 262 854 q 169 834 190 854 q 148 779 148 813 q 174 711 148 744 q 264 653 201 678 q 248 640 259 646 q 217 633 237 633 z "},"म":{"ha":811,"x_min":-38,"x_max":849,"o":"m 671 812 l 671 -8 l 665 -13 l 562 13 l 562 345 l 250 345 l 250 246 q 238 205 250 218 q 212 193 227 193 q 109 260 174 193 q 44 381 44 327 q 65 423 44 405 q 142 442 86 441 l 142 812 l 0 812 l -38 896 l -34 902 l 811 902 l 849 818 l 845 812 l 671 812 m 562 443 l 562 812 l 250 812 l 250 443 l 562 443 z "},"य":{"ha":846,"x_min":-38,"x_max":884,"o":"m 706 -8 l 700 -13 l 597 13 l 597 227 q 526 189 563 201 q 446 177 489 177 q 243 254 344 177 q 56 502 143 332 l 59 509 q 216 583 172 541 q 259 690 259 626 q 251 755 259 723 q 230 812 242 787 l 0 812 l -38 896 l -34 902 l 846 902 l 884 818 l 880 812 l 706 812 l 706 -8 m 298 812 q 338 720 323 767 q 354 628 354 673 q 310 506 354 555 q 181 426 266 456 q 286 317 227 349 q 399 286 345 286 q 537 336 476 286 q 597 468 597 386 l 597 812 l 298 812 z "},"र":{"ha":587,"x_min":-38,"x_max":625,"o":"m 621 812 l 380 812 q 422 696 406 754 q 439 585 439 638 q 382 428 439 500 q 173 328 326 356 q 316 163 238 229 q 497 45 395 98 q 473 11 492 24 q 433 -1 454 -1 q 198 170 343 -1 q 53 443 53 341 q 76 503 53 478 q 144 528 100 528 q 202 519 170 528 q 269 490 235 510 q 329 548 311 513 q 348 636 348 583 q 339 719 348 672 q 313 812 331 765 l 0 812 l -38 896 l -34 902 l 587 902 l 625 818 l 621 812 z "},"ऱ":{"ha":587,"x_min":-38,"x_max":625,"o":"m 621 812 l 380 812 q 422 696 406 754 q 439 585 439 638 q 382 428 439 500 q 173 328 326 356 q 316 163 238 229 q 497 45 395 98 q 473 11 492 24 q 433 -1 454 -1 q 198 170 343 -1 q 53 443 53 341 q 76 503 53 478 q 144 528 100 528 q 202 519 170 528 q 269 490 235 510 q 329 548 311 513 q 348 636 348 583 q 339 719 348 672 q 313 812 331 765 l 0 812 l -38 896 l -34 902 l 587 902 l 625 818 l 621 812 m 52 52 q 71 98 52 79 q 117 117 90 117 q 162 98 143 117 q 181 52 181 79 q 162 6 181 25 q 117 -13 143 -13 q 71 6 90 -13 q 52 52 52 25 z "},"ल":{"ha":957,"x_min":-38,"x_max":995,"o":"m 817 812 l 817 -8 l 810 -13 l 708 13 l 708 538 q 564 455 615 513 q 486 299 512 397 l 478 296 l 382 361 q 404 420 391 392 q 433 473 416 448 q 367 525 399 508 q 301 541 334 541 q 215 502 248 541 q 182 401 182 463 q 247 208 182 316 q 428 16 312 100 q 412 -4 423 3 q 389 -12 401 -12 q 202 136 329 -12 q 75 445 75 283 q 124 587 75 532 q 257 642 173 642 q 361 615 309 642 q 472 522 413 589 q 577 596 516 568 q 708 629 637 623 l 708 812 l 0 812 l -38 896 l -34 902 l 957 902 l 995 818 l 991 812 l 817 812 z "},"ळ":{"ha":975,"x_min":-34,"x_max":1013,"o":"m 732 812 l 732 602 q 880 496 817 576 q 943 319 943 416 q 885 163 943 226 q 739 100 826 100 q 618 136 678 100 q 494 245 557 172 q 419 144 459 182 q 314 106 378 106 q 127 195 212 106 q 42 398 42 283 q 102 554 42 491 q 255 617 163 617 q 377 586 315 617 q 503 491 438 555 q 563 569 534 541 q 631 606 592 597 l 631 812 l 4 812 l -34 896 l -30 902 l 975 902 l 1013 818 l 1008 812 l 732 812 m 846 371 q 810 479 846 436 q 714 522 775 522 q 632 481 669 522 q 526 304 594 441 q 608 222 566 248 q 694 195 650 195 q 803 247 761 195 q 846 371 846 298 m 471 435 q 388 499 431 477 q 300 522 345 522 q 184 470 228 522 q 140 347 140 419 q 176 238 140 281 q 271 195 212 195 q 365 249 329 195 q 471 435 401 302 z "},"ऴ":{"ha":970,"x_min":-38,"x_max":1008,"o":"m 728 812 l 728 602 q 876 496 813 576 q 939 319 939 416 q 881 163 939 226 q 735 100 822 100 q 614 136 674 100 q 490 245 553 172 q 415 144 455 182 q 310 106 374 106 q 123 195 208 106 q 38 398 38 283 q 98 554 38 491 q 251 617 159 617 q 373 586 311 617 q 499 491 434 555 q 559 569 530 541 q 627 606 588 597 l 627 812 l 0 812 l -38 896 l -34 902 l 970 902 l 1008 818 l 1004 812 l 728 812 m 842 371 q 806 479 842 436 q 710 522 771 522 q 628 481 665 522 q 522 304 590 441 q 604 222 562 248 q 690 195 646 195 q 799 247 757 195 q 842 371 842 298 m 467 435 q 384 499 427 477 q 296 522 341 522 q 180 470 224 522 q 136 347 136 419 q 172 238 136 281 q 267 195 208 195 q 361 249 325 195 q 467 435 397 302 m 452 -18 q 471 28 452 9 q 517 47 490 47 q 562 28 543 47 q 581 -18 581 9 q 562 -64 581 -45 q 517 -83 543 -83 q 471 -64 490 -83 q 452 -18 452 -45 z "},"व":{"ha":787,"x_min":-38,"x_max":825,"o":"m 646 812 l 646 -8 l 640 -13 l 538 13 l 538 201 q 452 160 495 172 q 374 149 410 149 q 158 238 262 149 q 54 452 54 328 q 125 616 54 550 q 304 683 197 683 q 426 658 364 683 q 538 580 487 633 l 538 812 l 0 812 l -38 896 l -34 902 l 787 902 l 825 818 l 821 812 l 646 812 m 538 442 q 484 544 538 503 q 353 585 431 585 q 209 533 264 585 q 155 405 155 481 q 202 286 155 334 q 326 237 250 237 q 471 289 405 237 q 538 419 538 341 l 538 442 z "},"श":{"ha":1013,"x_min":-37,"x_max":1050,"o":"m 479 669 q 447 781 479 744 q 363 817 414 817 q 289 786 313 817 q 264 711 264 755 q 306 605 264 654 q 440 510 347 557 q 469 588 459 547 q 479 669 479 628 m 574 614 q 515 409 574 519 q 313 241 456 298 q 404 123 353 155 q 509 92 454 92 q 561 98 538 92 q 607 116 584 105 q 618 86 615 100 q 622 61 622 72 q 596 6 622 28 q 524 -17 571 -17 q 393 33 465 -17 q 251 228 320 83 q 112 269 164 229 q 60 360 60 309 q 83 416 60 395 q 142 437 107 437 q 210 416 176 437 q 271 351 244 395 q 348 398 313 370 q 408 459 382 427 q 221 586 279 516 q 163 738 163 655 q 166 778 163 759 q 177 812 170 796 l 1 812 l -37 896 l -33 902 l 1013 902 l 1050 818 l 1046 812 l 872 812 l 872 -8 l 866 -13 l 764 13 l 764 812 l 499 812 q 555 719 536 768 q 574 614 574 671 z "},"ष":{"ha":754,"x_min":-38,"x_max":792,"o":"m 613 812 l 613 -8 l 607 -13 l 505 13 l 505 286 q 429 250 467 261 q 354 238 391 238 q 170 320 252 238 q 87 512 87 401 l 87 812 l 0 812 l -38 896 l -34 902 l 754 902 l 792 818 l 788 812 l 613 812 m 199 812 l 489 435 q 501 470 497 452 q 505 509 505 488 l 505 812 l 199 812 m 196 454 q 228 355 196 389 q 313 321 259 321 q 385 336 350 321 q 448 378 420 351 l 196 700 l 196 454 z "},"स":{"ha":925,"x_min":-35,"x_max":963,"o":"m 345 812 q 391 692 374 749 q 408 577 408 635 q 399 512 408 543 q 370 448 391 481 q 442 430 406 436 q 505 425 477 425 q 627 464 579 425 q 675 563 675 503 l 675 812 l 345 812 m 784 812 l 784 -8 l 778 -13 l 675 13 l 675 368 q 617 347 645 353 q 561 341 589 341 q 448 358 508 341 q 332 401 387 375 q 268 358 305 376 q 176 328 230 340 q 318 164 239 231 q 500 45 397 98 q 476 11 495 24 q 436 -1 457 -1 q 201 170 346 -1 q 56 443 56 341 q 79 503 56 478 q 147 528 102 528 q 198 521 170 528 q 258 497 227 513 q 303 552 289 519 q 317 632 317 585 q 307 719 317 672 q 277 812 297 765 l 3 812 l -35 896 l -31 902 l 925 902 l 963 818 l 959 812 l 784 812 z "},"ह":{"ha":682,"x_min":-38,"x_max":720,"o":"m 544 812 l 544 599 l 538 593 l 257 593 q 184 569 205 593 q 162 515 162 545 q 174 471 162 492 q 206 432 185 450 q 279 464 239 453 q 359 474 319 474 q 538 407 467 474 q 609 247 609 340 q 579 150 609 184 q 509 115 549 115 q 467 128 488 115 q 426 175 446 140 q 508 230 481 200 q 534 293 534 260 q 502 354 534 330 q 407 377 469 377 q 260 327 314 377 q 205 206 205 277 q 304 45 205 113 q 582 -22 402 -22 q 558 -67 582 -50 q 477 -83 535 -83 q 217 14 331 -83 q 104 241 104 112 q 119 325 104 286 q 159 393 134 364 q 88 479 113 431 q 64 570 64 527 q 98 654 64 619 q 201 689 132 689 l 434 689 q 438 690 437 689 q 439 694 439 692 l 439 812 l 0 812 l -38 896 l -34 902 l 682 902 l 720 818 l 716 812 l 544 812 z "},"ऺ":{"ha":0,"x_min":-50,"x_max":47,"o":"m 41 848 l -50 867 l -50 1090 l -43 1095 l 47 1076 l 47 853 l 41 848 z "},"ऻ":{"ha":389,"x_min":-38,"x_max":427,"o":"m 427 818 l 422 812 l 248 812 l 248 -8 l 242 -13 l 140 13 l 140 812 l 0 812 l -38 896 l -34 902 l 146 902 l 146 1090 l 152 1095 l 243 1076 l 243 902 l 389 902 l 427 818 z "},"़":{"ha":0,"x_min":-65,"x_max":64,"o":"m -65 -16 q -46 30 -65 11 q 0 49 -27 49 q 45 30 26 49 q 64 -16 64 11 q 45 -62 64 -43 q 0 -81 26 -81 q -46 -62 -27 -81 q -65 -16 -65 -43 z "},"ऽ":{"ha":664,"x_min":88,"x_max":596,"o":"m 570 812 l 351 812 q 233 780 273 812 q 193 707 193 748 q 332 574 193 615 q 552 411 471 534 q 585 341 574 377 q 596 267 596 304 q 543 124 596 182 q 391 67 489 67 q 170 167 251 67 q 88 351 88 267 q 97 392 88 372 q 138 418 106 412 q 219 230 156 288 q 359 173 283 173 q 474 213 429 173 q 518 313 518 253 q 377 465 518 429 q 137 640 235 500 q 110 689 122 661 q 97 753 97 718 q 152 864 97 825 q 295 902 206 902 l 536 902 l 574 818 l 570 812 z "},"ा":{"ha":389,"x_min":-38,"x_max":427,"o":"m 242 -13 l 140 13 l 140 812 l 0 812 l -38 896 l -34 902 l 389 902 l 427 818 l 422 812 l 248 812 l 248 -8 l 242 -13 z "},"ि":{"ha":389,"x_min":-38,"x_max":986,"o":"m 43 1072 q 116 1228 43 1163 q 332 1293 189 1293 q 677 1189 501 1293 q 986 885 853 1086 l 928 849 q 673 1095 828 1005 q 366 1184 519 1184 q 195 1139 254 1184 q 136 1025 136 1094 q 152 960 136 991 q 198 902 167 929 l 389 902 l 427 818 l 422 812 l 248 812 l 248 -8 l 242 -13 l 140 13 l 140 812 l 0 812 l -38 896 l -34 902 l 115 902 q 62 982 81 941 q 43 1072 43 1024 z "},"ी":{"ha":389,"x_min":-424,"x_max":427,"o":"m 242 -13 l 140 13 l 140 812 l 0 812 l -38 896 l -34 902 l 152 902 q -19 1135 66 1072 q -182 1198 -104 1198 q -281 1164 -247 1198 q -315 1083 -315 1131 q -274 976 -315 1031 q -151 880 -233 921 l -257 881 q -389 1009 -355 947 q -424 1124 -424 1072 q -372 1246 -424 1198 q -223 1295 -320 1295 q -4 1215 -120 1295 q 223 902 112 1134 l 389 902 l 427 818 l 422 812 l 248 812 l 248 -8 l 242 -13 z "},"ु":{"ha":0,"x_min":-359,"x_max":188,"o":"m -150 -71 q -110 -8 -150 -36 q -14 20 -70 20 q 128 -42 68 20 q 188 -185 188 -104 q 136 -304 188 -260 q 1 -349 83 -349 q -258 -222 -157 -349 q -359 -50 -359 -95 q -350 -24 -359 -36 q -328 -9 -340 -13 q -202 -188 -275 -126 q -38 -250 -130 -250 q 71 -219 31 -250 q 111 -141 111 -187 q 89 -86 111 -106 q 33 -66 67 -66 q -22 -82 4 -66 q -78 -134 -49 -98 q -132 -112 -115 -132 q -150 -71 -150 -92 z "},"ू":{"ha":0,"x_min":-207,"x_max":336,"o":"m -207 -133 q -157 -20 -207 -62 q -31 23 -107 23 q 219 -88 101 23 q 336 -232 336 -199 q 331 -248 336 -239 q 315 -262 326 -257 q 157 -123 234 -170 q 4 -77 81 -76 q -93 -103 -57 -76 q -130 -175 -130 -131 q -110 -228 -130 -208 q -58 -249 -91 -248 q -3 -232 -30 -248 q 52 -184 24 -216 q 106 -206 89 -186 q 124 -248 124 -226 q 84 -307 124 -280 q -10 -334 43 -334 q -149 -272 -91 -334 q -207 -133 -207 -210 z "},"ृ":{"ha":0,"x_min":-204,"x_max":195,"o":"m 54 -7 l 54 -15 q -86 -77 -48 -43 q -123 -144 -123 -112 q -104 -192 -123 -168 q -39 -216 -84 -216 q 62 -188 9 -216 q 145 -128 115 -160 q 179 -154 163 -134 q 195 -197 195 -174 q 137 -269 195 -241 q 17 -296 78 -296 q -142 -233 -81 -296 q -204 -102 -204 -171 q -161 -4 -204 -49 q -20 66 -118 40 l 54 -7 z "},"ॄ":{"ha":0,"x_min":-208,"x_max":223,"o":"m 8 -393 q 94 -367 45 -393 q 170 -295 142 -342 q 207 -319 191 -303 q 223 -357 223 -335 q 176 -431 223 -395 q 59 -466 128 -466 q -80 -416 -22 -466 q -138 -304 -138 -366 q -133 -273 -138 -290 q -115 -240 -128 -256 q -184 -181 -160 -217 q -208 -107 -208 -146 q -168 -14 -208 -62 q -18 63 -127 34 l 54 -7 l 54 -15 q -95 -84 -62 -47 q -127 -146 -127 -121 q -114 -181 -127 -168 q -75 -194 -100 -194 q -22 -178 -52 -194 q 65 -123 7 -163 l 125 -191 l 123 -198 q -17 -282 17 -248 q -51 -343 -51 -315 q -35 -379 -51 -366 q 8 -393 -19 -393 z "},"ॅ":{"ha":0,"x_min":-205,"x_max":231,"o":"m -205 1229 q -198 1261 -205 1251 q -178 1278 -191 1271 q -101 1138 -146 1179 q -2 1098 -56 1098 q 102 1139 55 1098 q 170 1265 149 1179 q 217 1236 203 1251 q 231 1194 231 1220 q 172 1070 231 1133 q 22 1008 113 1008 q -143 1086 -81 1008 q -205 1229 -205 1164 z "},"ॆ":{"ha":0,"x_min":-613,"x_max":47,"o":"m -47 889 l -47 902 q -38 933 -41 918 q -35 960 -35 948 q -88 1025 -35 1008 q -237 1057 -140 1042 q -485 1115 -357 1075 q -613 1274 -613 1156 q -610 1303 -613 1291 q -601 1326 -606 1316 q -487 1220 -554 1244 q -309 1175 -420 1195 q -64 1104 -153 1147 q 47 902 24 1062 l 47 889 l -47 889 z "},"े":{"ha":0,"x_min":-550,"x_max":39,"o":"m -39 902 q -256 1146 -189 1090 q -376 1201 -323 1201 q -440 1183 -414 1201 q -483 1131 -466 1165 q -531 1162 -512 1141 q -550 1213 -550 1184 q -517 1276 -550 1249 q -423 1303 -484 1303 q -258 1232 -355 1303 q 39 902 -161 1161 l 39 863 l -39 863 l -39 902 z "},"ै":{"ha":0,"x_min":-537,"x_max":47,"o":"m -354 1292 q -329 1346 -354 1321 q -254 1371 -304 1371 q -117 1288 -193 1371 q 47 902 -41 1205 l 47 869 l -50 869 l -50 902 q -234 1033 -146 989 q -371 1078 -321 1078 q -426 1059 -404 1078 q -461 1009 -448 1040 q -519 1040 -500 1019 q -537 1087 -537 1061 q -507 1149 -537 1124 q -431 1175 -476 1175 q -259 1121 -364 1175 q -44 980 -155 1067 q -144 1215 -106 1166 q -216 1264 -182 1264 q -259 1252 -241 1264 q -291 1221 -277 1240 q -336 1248 -317 1231 q -354 1292 -354 1265 z "},"ॉ":{"ha":328,"x_min":-252,"x_max":366,"o":"m -252 1229 q -245 1261 -252 1251 q -224 1278 -237 1271 q -148 1138 -193 1179 q -49 1098 -102 1098 q 55 1139 8 1098 q 123 1265 102 1179 q 170 1236 157 1251 q 184 1194 184 1220 q 125 1070 184 1133 q -24 1008 66 1008 q -190 1086 -128 1008 q -252 1229 -252 1164 m 181 -13 l 79 13 l 79 812 l -61 812 l -99 896 l -95 902 l 328 902 l 366 818 l 361 812 l 187 812 l 187 -8 l 181 -13 z "},"ॊ":{"ha":389,"x_min":-429,"x_max":427,"o":"m 427 818 l 422 812 l 248 812 l 248 -8 l 242 -13 l 140 13 l 140 812 l 0 812 l -38 896 l -34 902 l 150 902 q 159 933 156 918 q 162 959 162 948 q 110 1025 162 1008 q -39 1057 58 1042 q -295 1115 -161 1074 q -429 1274 -429 1155 q -426 1303 -429 1291 q -417 1326 -422 1316 q -298 1220 -368 1244 q -111 1175 -228 1195 q 132 1105 41 1147 q 245 902 222 1062 l 389 902 l 427 818 z "},"ो":{"ha":389,"x_min":-366,"x_max":427,"o":"m 248 812 l 248 -8 l 242 -13 l 140 13 l 140 812 l 0 812 l -38 896 l -34 902 l 145 902 q -72 1146 -5 1090 q -192 1201 -139 1201 q -255 1183 -229 1201 q -298 1131 -281 1165 q -347 1162 -328 1141 q -366 1213 -366 1184 q -332 1276 -366 1249 q -239 1303 -299 1303 q -74 1232 -170 1303 q 224 902 23 1161 l 389 902 l 427 818 l 422 812 l 248 812 z "},"ौ":{"ha":389,"x_min":-347,"x_max":427,"o":"m 427 818 l 422 812 l 248 812 l 248 -8 l 242 -13 l 140 13 l 140 812 l 0 812 l -38 896 l -34 902 l 140 902 q -44 1033 43 989 q -181 1078 -132 1078 q -236 1059 -214 1078 q -271 1009 -258 1040 q -329 1040 -311 1019 q -347 1087 -347 1061 q -317 1149 -347 1124 q -241 1175 -286 1175 q -70 1121 -174 1175 q 146 980 35 1067 q 46 1215 83 1166 q -26 1264 8 1264 q -69 1252 -51 1264 q -101 1221 -87 1240 q -146 1248 -127 1231 q -164 1292 -164 1265 q -139 1346 -164 1321 q -64 1371 -114 1371 q 73 1288 -3 1371 q 237 902 149 1205 l 389 902 l 427 818 z "},"्":{"ha":0,"x_min":-156,"x_max":323,"o":"m -156 -121 q -130 -79 -156 -95 q -54 -62 -103 -62 q 19 -73 -23 -62 q 115 -116 60 -83 q 263 -241 203 -170 q 323 -336 323 -311 q 318 -352 323 -343 q 302 -366 313 -361 q 123 -211 198 -247 q -11 -174 49 -174 q -66 -179 -40 -174 q -111 -189 -92 -184 q -144 -155 -132 -172 q -156 -121 -156 -138 z "},"ॏ":{"ha":389,"x_min":-436,"x_max":427,"o":"m 248 812 l 248 -8 l 242 -13 l 140 13 l 140 812 l 0 812 l -38 896 l -34 902 l 149 902 q 154 926 152 914 q 155 944 155 937 q 100 992 155 982 q -94 1009 45 1002 q -347 1059 -258 1018 q -436 1185 -436 1099 q -433 1215 -436 1202 q -424 1238 -429 1227 q -323 1143 -389 1168 q -132 1106 -256 1118 q 75 1078 19 1092 q 177 1010 132 1065 q 113 1109 159 1082 q -31 1160 66 1136 q -208 1214 -139 1187 q -277 1318 -277 1240 q -273 1352 -277 1336 q -262 1379 -269 1367 q -196 1306 -241 1326 q -65 1261 -151 1286 q 159 1159 94 1215 q 244 902 224 1103 l 389 902 l 427 818 l 422 812 l 248 812 z "},"ॐ":{"ha":1213,"x_min":34,"x_max":1179,"o":"m 838 995 q 819 948 838 968 q 772 928 799 928 q 725 948 745 928 q 706 995 706 968 q 725 1041 706 1022 q 772 1061 745 1061 q 819 1041 799 1061 q 838 995 838 1022 m 566 964 q 574 997 566 987 q 594 1013 581 1006 q 673 874 626 914 q 777 833 721 833 q 876 874 831 833 q 941 1001 921 915 q 990 966 977 985 q 1004 913 1004 947 q 947 799 1004 854 q 801 743 890 743 q 629 821 692 743 q 566 964 566 899 m 812 378 q 813 388 812 383 q 816 398 814 393 q 891 341 859 355 q 954 327 924 327 q 1049 372 1011 327 q 1088 481 1088 416 q 1061 567 1088 534 q 994 599 1034 599 q 847 479 901 599 q 681 359 793 359 q 640 365 661 359 q 599 382 619 371 q 624 321 615 353 q 632 255 632 290 q 569 97 632 158 q 400 35 507 35 q 122 193 210 35 q 34 444 34 351 q 46 491 34 479 q 84 506 59 503 q 193 232 116 318 q 372 145 271 145 q 494 188 448 145 q 541 297 541 231 q 517 385 541 344 q 457 448 494 425 q 380 423 422 433 q 294 408 338 413 l 239 515 l 243 522 q 443 575 380 529 q 506 696 506 621 q 468 791 506 760 q 372 823 431 823 q 259 781 300 823 q 219 676 219 739 q 147 699 174 676 q 120 758 120 721 q 173 854 120 809 q 328 899 227 899 q 527 828 449 899 q 605 651 605 758 q 585 557 605 597 q 528 488 564 517 q 576 461 551 468 q 618 455 601 455 q 776 574 730 455 q 943 694 822 694 q 1103 617 1027 694 q 1179 430 1179 541 q 1126 286 1179 341 q 992 230 1073 230 q 860 281 907 230 q 812 378 812 333 z "},"॑":{"ha":0,"x_min":-50,"x_max":47,"o":"m 41 1004 l -50 1023 l -50 1314 l -43 1319 l 47 1300 l 47 1009 l 41 1004 z "},"॒":{"ha":0,"x_min":-384,"x_max":31,"o":"m -353 -199 l -384 -128 l -380 -122 l 0 -122 l 31 -193 l 27 -199 l -353 -199 z "},"॓":{"ha":0,"x_min":-138,"x_max":130,"o":"m 69 1015 l -138 1263 l -136 1272 l -77 1309 l 130 1061 l 129 1053 l 69 1015 z "},"॔":{"ha":0,"x_min":-101,"x_max":167,"o":"m -40 1015 l -100 1053 l -101 1061 l 106 1309 l 165 1272 l 167 1263 l -40 1015 z "},"ॕ":{"ha":0,"x_min":-205,"x_max":244,"o":"m -205 1324 q -198 1356 -205 1346 q -178 1373 -191 1366 q -101 1233 -146 1274 q -2 1193 -56 1193 q 102 1234 55 1193 q 170 1360 149 1274 q 217 1331 203 1346 q 231 1289 231 1315 q 172 1165 231 1227 q 22 1103 113 1103 q -143 1181 -81 1103 q -205 1324 -205 1259 m -174 964 l -198 1028 l -195 1036 l 219 1036 l 244 970 l 240 964 l -174 964 z "},"ॖ":{"ha":0,"x_min":-284,"x_max":284,"o":"m -284 -102 q -279 -83 -284 -91 q -267 -71 -273 -75 q -146 -175 -216 -140 q -5 -211 -77 -211 q 132 -175 70 -211 q 228 -75 194 -140 q 270 -103 255 -84 q 284 -145 284 -121 q 212 -250 284 -200 q 33 -299 139 -299 q -195 -224 -106 -299 q -284 -102 -284 -150 z "},"ॗ":{"ha":0,"x_min":-284,"x_max":284,"o":"m -284 -102 q -279 -83 -284 -91 q -267 -71 -273 -75 q -146 -175 -216 -140 q -5 -211 -77 -211 q 132 -175 70 -211 q 228 -75 194 -140 q 270 -103 255 -84 q 284 -145 284 -121 q 212 -250 284 -200 q 33 -299 139 -299 q -195 -224 -106 -299 q -284 -102 -284 -150 m 284 -357 q 225 -440 284 -404 q 66 -477 166 -477 q -186 -398 -89 -477 q -284 -272 -284 -319 q -279 -253 -284 -261 q -267 -240 -274 -245 q -137 -348 -216 -307 q 37 -389 -58 -389 q 162 -365 109 -389 q 247 -298 215 -340 q 275 -325 266 -309 q 284 -357 284 -340 z "},"क़":{"ha":1046,"x_min":-38,"x_max":1084,"o":"m 497 429 q 452 529 497 486 q 335 572 406 572 q 214 523 260 572 q 168 405 168 474 q 215 288 168 334 q 330 243 261 243 q 446 282 395 243 q 497 385 497 322 l 497 429 m 606 812 l 606 565 q 676 614 638 597 q 759 632 713 632 q 919 560 851 632 q 987 359 987 488 q 943 194 987 252 q 851 136 899 136 q 800 152 825 136 q 760 195 775 169 q 866 296 829 231 q 903 425 903 361 q 875 514 903 482 q 802 546 847 546 q 673 487 740 546 q 606 336 606 429 l 606 -8 l 600 -13 l 497 13 l 497 189 q 435 158 465 167 q 376 149 405 149 q 169 238 271 149 q 67 452 67 328 q 129 607 67 545 q 286 669 191 669 q 390 648 334 669 q 497 574 447 627 l 497 812 l 0 812 l -38 896 l -34 902 l 1046 902 l 1084 818 l 1080 812 l 606 812 m 205 -16 q 224 30 205 11 q 271 49 243 49 q 316 30 297 49 q 335 -16 335 11 q 316 -62 335 -43 q 271 -81 297 -81 q 224 -62 243 -81 q 205 -16 205 -43 z "},"ख़":{"ha":1062,"x_min":-38,"x_max":1100,"o":"m 812 441 q 771 533 812 490 q 664 576 730 576 q 564 535 601 576 q 528 437 528 494 q 572 334 528 371 q 671 297 616 297 q 771 333 729 297 q 812 417 812 369 l 812 441 m 921 812 l 921 -8 l 915 -13 l 812 13 l 812 245 q 760 221 783 229 q 711 214 736 214 q 523 296 613 214 q 433 486 433 377 q 485 617 433 565 q 621 669 537 669 q 722 646 673 669 q 812 576 770 623 l 812 812 l 286 812 q 333 688 315 749 q 351 565 351 626 q 307 413 351 473 q 178 328 263 353 q 377 150 258 219 q 653 58 496 81 q 622 12 644 26 q 564 -3 600 -3 q 236 158 419 -3 q 53 444 53 318 q 76 506 53 484 q 142 528 100 528 q 185 523 163 528 q 231 509 208 518 q 253 557 246 530 q 260 618 260 584 q 250 709 260 659 q 219 812 241 760 l 0 812 l -38 896 l -34 902 l 1062 902 l 1100 818 l 1096 812 l 921 812 m 146 -16 q 165 30 146 11 q 212 49 184 49 q 257 30 238 49 q 276 -16 276 11 q 257 -62 276 -43 q 212 -81 238 -81 q 165 -62 184 -81 q 146 -16 146 -43 z "},"ग़":{"ha":842,"x_min":-38,"x_max":880,"o":"m 701 812 l 701 -8 l 695 -13 l 593 13 l 593 812 l 298 812 l 298 355 q 282 273 298 300 q 237 246 267 246 q 123 311 184 246 q 61 414 61 376 q 74 440 61 429 q 115 452 86 452 l 193 452 l 193 812 l 0 812 l -38 896 l -34 902 l 842 902 l 880 818 l 876 812 l 701 812 m 282 52 q 301 98 282 79 q 347 117 320 117 q 393 98 374 117 q 412 52 412 79 q 393 6 412 25 q 347 -13 374 -13 q 301 6 320 -13 q 282 52 282 25 z "},"ज़":{"ha":965,"x_min":-38,"x_max":1003,"o":"m 825 812 l 825 -8 l 819 -13 l 716 13 l 716 536 l 490 536 q 552 440 532 490 q 572 343 572 391 q 517 206 572 258 q 377 154 461 154 q 137 315 211 154 q 62 560 63 475 q 75 609 62 595 q 117 626 87 623 q 204 351 142 437 q 348 264 267 264 q 440 297 401 264 q 479 392 479 330 q 442 492 479 448 q 336 536 406 536 l 298 620 l 302 626 l 716 626 l 716 812 l 0 812 l -38 896 l -34 902 l 965 902 l 1003 818 l 999 812 l 825 812 m 297 -29 q 316 16 297 -3 q 362 35 335 35 q 408 16 389 35 q 427 -29 427 -3 q 408 -75 427 -56 q 362 -94 389 -94 q 316 -75 335 -94 q 297 -29 297 -56 z "},"ड़":{"ha":713,"x_min":-38,"x_max":751,"o":"m 585 812 l 585 606 l 579 600 l 311 600 q 236 582 257 600 q 214 534 214 563 q 236 481 214 501 q 301 461 258 461 q 378 468 331 461 q 452 475 425 475 q 585 409 525 475 q 644 249 644 343 q 590 116 644 164 q 440 67 535 67 q 170 183 273 67 q 62 363 66 300 q 68 396 60 382 q 90 418 75 410 q 235 234 152 294 q 404 173 318 173 q 522 207 471 173 q 573 292 573 240 q 553 344 573 323 q 499 366 533 366 q 430 360 479 366 q 355 354 382 354 q 198 428 271 354 q 125 587 125 501 q 157 667 125 637 q 256 696 189 696 l 475 696 q 479 697 477 696 q 480 701 480 699 l 480 812 l 0 812 l -38 896 l -34 902 l 713 902 l 751 818 l 747 812 l 585 812 m 336 -83 q 355 -38 336 -57 q 401 -19 374 -19 q 447 -38 428 -19 q 466 -83 466 -57 q 447 -130 466 -111 q 401 -149 428 -149 q 355 -130 374 -149 q 336 -83 336 -111 z "},"ढ़":{"ha":718,"x_min":-38,"x_max":755,"o":"m 571 812 l 571 568 l 566 562 l 416 562 q 234 502 300 562 q 169 352 169 441 q 228 199 169 268 q 397 130 287 130 q 429 132 412 130 q 464 138 447 134 q 393 231 414 189 q 372 313 372 273 q 409 409 372 374 q 501 444 446 444 q 628 387 576 444 q 680 252 680 329 q 609 102 680 162 q 435 41 538 41 q 181 155 290 41 q 73 402 73 269 q 153 586 73 511 q 381 662 234 662 l 461 662 q 465 663 464 662 q 467 667 467 665 l 467 812 l 0 812 l -38 896 l -34 902 l 718 902 l 755 818 l 751 812 l 571 812 m 611 288 q 592 340 611 321 q 545 360 572 360 q 489 335 513 360 q 466 273 466 311 q 477 220 466 248 q 515 159 489 192 q 585 216 559 181 q 611 288 611 252 m 343 -83 q 362 -38 343 -57 q 408 -19 381 -19 q 454 -38 435 -19 q 473 -83 473 -57 q 454 -130 473 -111 q 408 -149 435 -149 q 362 -130 381 -149 q 343 -83 343 -111 z "},"फ़":{"ha":1004,"x_min":-38,"x_max":1042,"o":"m 196 812 l 196 448 q 222 358 196 389 q 295 328 248 328 q 411 374 357 328 q 464 488 464 421 l 464 812 l 196 812 m 722 639 q 879 573 810 639 q 947 378 947 507 q 903 214 947 273 q 810 156 859 156 q 759 173 784 156 q 719 215 734 189 q 825 312 787 250 q 862 439 862 375 q 836 523 862 494 q 765 553 810 553 q 637 496 702 553 q 572 351 572 440 l 572 -8 l 566 -13 l 464 13 l 464 283 q 397 254 430 263 q 335 245 365 245 q 163 322 239 245 q 87 505 87 399 l 87 812 l 0 812 l -38 896 l -34 902 l 1004 902 l 1042 818 l 1038 812 l 572 812 l 572 576 q 642 623 605 608 q 722 639 680 639 m 180 52 q 199 98 180 79 q 245 117 218 117 q 291 98 272 117 q 310 52 310 79 q 291 6 310 25 q 245 -13 272 -13 q 199 6 218 -13 q 180 52 180 25 z "},"य़":{"ha":846,"x_min":-38,"x_max":884,"o":"m 706 -8 l 700 -13 l 597 13 l 597 227 q 526 189 563 201 q 446 177 489 177 q 243 254 344 177 q 56 502 143 332 l 59 509 q 216 583 172 541 q 259 690 259 626 q 251 755 259 723 q 230 812 242 787 l 0 812 l -38 896 l -34 902 l 846 902 l 884 818 l 880 812 l 706 812 l 706 -8 m 298 812 q 338 720 323 767 q 354 628 354 673 q 310 506 354 555 q 181 426 266 456 q 286 317 227 349 q 399 286 345 286 q 537 336 476 286 q 597 468 597 386 l 597 812 l 298 812 m 146 52 q 165 98 146 79 q 212 117 184 117 q 257 98 238 117 q 276 52 276 79 q 257 6 276 25 q 212 -13 238 -13 q 165 6 184 -13 q 146 52 146 25 z "},"ॠ":{"ha":1201,"x_min":-38,"x_max":1239,"o":"m 647 812 l 647 484 q 750 504 703 488 q 838 548 798 520 q 816 592 823 572 q 809 629 809 612 q 831 685 809 662 q 892 709 854 709 q 970 676 939 709 q 1002 602 1002 643 q 986 545 1002 574 q 941 492 970 517 q 993 390 968 437 q 1042 302 1018 343 l 1040 297 q 922 210 953 245 q 892 146 892 176 q 912 100 892 117 q 962 83 932 83 q 1050 112 1002 83 q 1126 181 1099 140 q 1164 153 1145 174 q 1184 104 1184 132 q 1137 28 1184 64 q 1023 -7 1090 -7 q 867 59 930 -7 q 804 195 804 124 q 836 277 804 239 q 938 358 867 315 q 914 404 926 380 q 889 454 902 427 q 779 406 841 425 q 647 385 716 387 l 647 -8 l 641 -13 l 538 13 l 538 354 q 377 232 449 291 q 233 107 305 174 l 150 187 l 150 195 q 314 332 229 266 q 503 465 400 398 q 356 566 410 535 q 266 596 303 596 q 194 569 229 596 q 132 492 160 541 q 81 535 99 512 q 64 583 64 558 q 104 655 64 619 q 220 691 144 691 q 333 658 273 691 q 538 517 394 625 l 538 812 l 0 812 l -38 896 l -34 902 l 1201 902 l 1239 818 l 1235 812 l 647 812 z "},"ॡ":{"ha":957,"x_min":-38,"x_max":1019,"o":"m 800 -197 q 888 -171 838 -197 q 966 -100 939 -144 q 1002 -123 985 -107 q 1019 -162 1019 -139 q 971 -235 1019 -200 q 853 -271 924 -271 q 714 -221 770 -271 q 657 -109 657 -172 q 662 -78 657 -93 q 680 -45 667 -62 q 608 11 635 -24 q 581 87 581 46 q 614 166 581 134 q 697 246 648 199 q 785 347 758 304 q 812 431 812 391 q 785 499 812 475 q 717 523 758 523 q 595 470 659 523 q 482 299 532 418 l 475 297 l 385 354 q 409 412 396 385 q 437 463 422 439 q 369 517 403 499 q 300 534 334 534 q 210 493 245 534 q 175 389 175 452 q 236 208 175 310 q 414 23 297 106 q 399 2 410 10 q 375 -5 388 -5 q 193 131 317 -5 q 69 424 69 267 q 120 569 69 512 q 261 627 171 627 q 365 602 313 627 q 477 514 416 577 q 550 578 511 555 q 627 611 590 602 l 627 812 l 0 812 l -38 896 l -34 902 l 957 902 l 995 818 l 991 812 l 728 812 l 728 608 q 846 525 796 589 q 895 378 895 462 q 868 278 895 317 q 806 205 841 239 q 705 106 741 142 q 668 43 668 71 q 678 18 668 29 q 711 7 688 7 q 769 22 735 7 q 861 72 804 37 l 920 5 l 918 -3 q 777 -94 809 -57 q 745 -155 745 -131 q 761 -187 745 -176 q 800 -197 777 -197 z "},"ॢ":{"ha":0,"x_min":-384,"x_max":183,"o":"m -384 -174 q -350 -83 -384 -119 q -257 -47 -316 -47 q -193 -61 -225 -47 q -121 -111 -160 -75 q -61 -66 -94 -77 q -3 -54 -28 -54 q 98 -100 54 -54 q 142 -217 142 -145 q 133 -267 142 -243 q 92 -330 123 -291 q 35 -395 60 -368 q 10 -444 10 -423 q 18 -461 10 -455 q 39 -467 26 -467 q 93 -450 62 -467 q 140 -400 123 -433 q 169 -420 155 -405 q 183 -454 183 -435 q 154 -502 183 -480 q 83 -524 124 -524 q -13 -485 28 -524 q -54 -409 -54 -447 q -32 -351 -54 -380 q 14 -292 -10 -321 q 63 -228 45 -256 q 81 -171 81 -200 q 67 -132 81 -144 q 28 -119 53 -119 q -46 -152 -4 -119 q -106 -288 -89 -184 l -113 -292 l -180 -258 q -167 -199 -175 -225 q -149 -152 -159 -172 q -191 -127 -170 -135 q -233 -119 -212 -119 q -289 -141 -267 -119 q -311 -197 -311 -163 q -272 -302 -311 -242 q -163 -408 -233 -361 q -175 -425 -165 -418 q -194 -432 -184 -432 q -307 -351 -230 -432 q -384 -174 -384 -269 z "},"ॣ":{"ha":0,"x_min":-384,"x_max":220,"o":"m -384 -174 q -350 -83 -384 -119 q -257 -47 -316 -47 q -193 -61 -225 -47 q -121 -111 -160 -75 q -61 -66 -94 -77 q -3 -54 -28 -54 q 98 -97 54 -54 q 142 -201 142 -140 q 127 -261 142 -235 q 78 -316 111 -288 q 26 -362 55 -336 q -3 -414 -3 -388 q 3 -432 -3 -424 q 24 -441 9 -441 q 62 -430 39 -441 q 121 -395 85 -419 l 157 -448 l 155 -456 q 64 -509 85 -487 q 43 -547 43 -531 q 55 -570 43 -562 q 84 -578 66 -578 q 138 -563 107 -578 q 186 -517 170 -548 q 211 -539 201 -526 q 220 -568 220 -553 q 191 -614 220 -594 q 121 -635 161 -635 q 23 -595 62 -635 q -16 -517 -16 -555 q -13 -498 -16 -508 q -1 -474 -10 -488 q -49 -436 -31 -460 q -68 -380 -68 -412 q -52 -331 -68 -353 q 1 -279 -35 -309 q 58 -227 35 -250 q 81 -170 81 -204 q 67 -132 81 -144 q 28 -119 53 -119 q -46 -150 -4 -119 q -106 -281 -89 -181 l -113 -286 l -180 -258 q -167 -199 -175 -225 q -149 -152 -159 -172 q -191 -127 -170 -135 q -233 -119 -212 -119 q -289 -141 -267 -119 q -311 -197 -311 -163 q -272 -302 -311 -242 q -163 -408 -233 -361 q -175 -425 -165 -418 q -194 -432 -184 -432 q -307 -351 -230 -432 q -384 -174 -384 -269 z "},"।":{"ha":583,"x_min":339,"x_max":448,"o":"m 448 -35 l 441 -40 l 339 -14 l 339 902 l 345 907 l 448 881 l 448 -35 z "},"॥":{"ha":834,"x_min":339,"x_max":699,"o":"m 699 -35 l 692 -40 l 590 -14 l 590 902 l 596 907 l 699 881 l 699 -35 m 448 -35 l 441 -40 l 339 -14 l 339 902 l 345 907 l 448 881 l 448 -35 z "},"०":{"ha":704,"x_min":61,"x_max":643,"o":"m 323 709 q 548 610 452 709 q 643 386 643 511 q 567 204 643 275 q 388 133 492 133 q 161 233 260 133 q 61 454 61 334 q 137 634 61 559 q 323 709 214 709 m 554 435 q 503 562 554 514 q 371 610 452 610 q 217 549 276 610 q 157 406 157 489 q 207 280 157 332 q 340 229 256 229 q 490 286 427 229 q 554 435 554 342 z "},"१":{"ha":549,"x_min":81,"x_max":508,"o":"m 220 231 q 307 167 256 205 q 391 102 357 130 q 484 9 460 46 q 508 -62 508 -28 q 485 -132 508 -103 q 430 -161 463 -161 q 381 -143 405 -161 q 345 -100 357 -126 q 389 -59 376 -81 q 401 -20 401 -38 q 389 8 401 -5 q 337 54 377 21 q 207 158 260 117 q 84 252 154 198 l 85 259 q 195 364 146 316 q 279 451 244 412 q 142 552 202 492 q 81 696 81 611 q 133 820 81 773 q 255 866 185 866 q 415 793 347 866 q 484 621 484 720 q 420 447 484 534 q 220 231 355 359 m 295 781 q 220 749 250 781 q 190 666 190 716 q 218 582 190 625 q 319 496 246 538 q 375 587 359 547 q 392 666 392 627 q 364 752 392 722 q 295 781 336 781 z "},"२":{"ha":720,"x_min":102,"x_max":680,"o":"m 564 17 q 606 23 587 17 q 649 41 626 28 q 672 10 664 28 q 680 -26 680 -9 q 655 -79 680 -58 q 589 -100 631 -100 q 447 -35 526 -100 q 288 208 369 31 q 277 207 281 207 q 264 206 272 206 q 143 247 185 206 q 102 334 102 288 q 127 394 102 370 q 190 417 153 417 q 254 397 223 417 q 308 336 286 376 q 490 469 433 388 q 547 627 547 549 q 503 742 547 702 q 393 781 460 781 q 262 727 310 781 q 215 603 215 673 q 143 625 170 603 q 116 688 116 647 q 184 810 116 753 q 351 866 252 866 q 556 782 470 866 q 642 581 642 698 q 568 383 642 480 q 353 229 494 286 q 456 61 407 106 q 564 17 505 17 z "},"३":{"ha":641,"x_min":88,"x_max":600,"o":"m 465 -56 q 509 -51 489 -56 q 551 -32 528 -45 q 574 -63 566 -45 q 582 -100 582 -81 q 557 -152 582 -131 q 493 -174 533 -174 q 381 -122 437 -174 q 276 43 325 -71 q 148 82 196 43 q 100 171 100 121 q 123 230 100 205 q 184 255 146 255 q 254 228 223 255 q 303 152 286 200 q 453 202 404 159 q 502 300 502 245 q 480 371 502 336 q 408 429 458 406 q 329 408 372 417 q 235 395 286 399 l 180 501 l 184 508 q 412 560 342 515 q 482 673 482 605 q 444 759 482 728 q 345 789 406 789 q 229 745 271 789 q 187 635 187 701 q 115 658 142 635 q 88 718 88 680 q 144 818 88 771 q 302 865 199 865 q 502 795 425 865 q 578 625 578 726 q 554 533 578 573 q 477 459 530 492 q 566 367 532 422 q 600 254 600 313 q 534 117 600 176 q 335 49 468 58 q 391 -33 364 -9 q 465 -56 418 -56 z "},"४":{"ha":753,"x_min":75,"x_max":716,"o":"m 716 783 q 577 596 629 668 q 450 422 524 525 q 564 295 528 350 q 600 180 600 241 q 547 60 600 94 q 444 26 494 26 q 295 92 363 26 q 228 242 228 157 q 245 312 228 271 q 328 444 262 353 q 158 587 242 513 q 75 743 75 661 q 109 830 75 794 q 190 866 144 866 q 244 845 223 866 q 282 788 266 825 q 208 759 237 783 q 179 698 179 734 q 223 617 179 656 q 367 496 268 577 q 478 645 425 575 q 629 847 530 715 l 715 789 l 716 783 m 317 197 q 344 138 317 159 q 406 117 371 117 q 474 143 445 117 q 503 215 503 170 q 479 293 503 254 q 412 371 455 332 q 337 261 357 297 q 317 197 317 224 z "},"५":{"ha":710,"x_min":64,"x_max":717,"o":"m 636 429 q 627 370 636 400 q 601 312 618 340 q 685 180 652 242 q 717 62 717 118 q 682 -34 717 3 q 600 -71 647 -71 q 550 -53 574 -71 q 511 15 527 -36 q 604 60 578 30 q 630 124 630 90 q 612 190 630 157 q 563 260 593 223 q 459 178 519 211 q 334 145 399 145 q 150 225 235 145 q 64 427 64 306 q 115 633 64 518 q 242 857 167 747 l 342 798 l 343 793 q 203 552 250 661 q 157 372 157 444 q 191 276 157 311 q 292 241 224 241 q 389 264 340 241 q 491 351 438 288 q 449 415 464 385 q 435 475 435 446 q 460 542 435 515 q 524 568 485 568 q 605 526 574 568 q 636 429 636 484 z "},"६":{"ha":665,"x_min":95,"x_max":646,"o":"m 602 230 q 590 177 602 203 q 556 130 577 151 q 626 25 607 67 q 646 -49 646 -17 q 622 -114 646 -90 q 564 -138 598 -138 q 515 -120 539 -138 q 476 -52 492 -102 q 539 -26 522 -44 q 556 15 556 -8 q 547 47 556 30 q 510 96 538 64 q 447 71 481 80 q 376 62 413 62 q 178 143 260 62 q 97 319 97 225 q 124 413 97 370 q 203 490 152 456 q 124 572 153 526 q 95 673 95 618 q 156 811 95 755 q 322 867 218 867 q 429 837 393 867 q 474 747 465 808 q 431 756 463 751 q 366 762 399 762 q 238 722 281 762 q 194 631 194 682 q 211 572 194 600 q 267 520 228 544 q 344 543 302 534 q 434 555 386 551 l 496 460 l 493 454 q 249 384 311 438 q 186 273 186 330 q 231 181 186 214 q 334 149 275 149 q 387 155 359 149 q 438 176 415 161 q 418 211 425 194 q 412 246 412 227 q 437 311 412 284 q 501 338 463 338 q 574 304 546 338 q 602 230 602 271 z "},"७":{"ha":702,"x_min":19,"x_max":675,"o":"m 266 636 q 314 759 266 716 q 423 802 363 802 q 601 685 528 802 q 675 401 675 568 q 608 168 675 245 q 434 92 541 92 q 129 297 239 92 q 19 735 19 503 q 30 812 19 784 q 84 841 41 841 q 195 348 103 495 q 401 201 286 201 q 508 238 463 201 q 575 343 554 274 q 356 438 446 348 q 266 636 266 529 m 460 710 q 394 681 426 710 q 363 592 363 652 q 425 463 363 513 q 588 408 487 412 q 590 434 589 420 q 591 460 591 448 q 554 638 591 567 q 460 710 517 710 z "},"८":{"ha":669,"x_min":81,"x_max":629,"o":"m 629 245 q 546 125 629 189 q 357 60 463 60 q 167 134 252 60 q 81 322 81 208 q 109 418 81 363 q 245 587 136 473 q 412 750 330 676 q 510 840 494 824 l 595 783 l 596 777 q 491 674 577 758 q 317 499 404 590 q 202 367 235 412 q 170 277 170 321 q 209 184 170 222 q 312 147 247 147 q 450 196 385 147 q 571 327 516 244 q 613 287 598 307 q 629 245 629 267 z "},"९":{"ha":587,"x_min":54,"x_max":509,"o":"m 286 399 q 354 319 307 375 q 432 222 401 263 q 483 140 467 176 q 498 69 498 105 q 468 -17 498 13 q 401 -47 437 -47 q 353 -30 375 -47 q 314 26 331 -12 q 371 62 347 39 q 395 118 395 84 q 346 225 395 165 q 214 380 297 286 q 96 532 138 467 q 54 671 54 596 q 107 809 54 756 q 245 861 159 861 q 430 786 351 861 q 509 602 509 710 q 452 460 509 516 q 286 399 395 405 m 422 642 q 386 736 422 699 q 292 774 349 774 q 198 738 239 774 q 157 627 157 701 q 170 557 157 589 q 208 491 182 525 q 369 535 315 494 q 422 642 422 576 z "},"॰":{"ha":704,"x_min":109,"x_max":595,"o":"m 328 899 q 517 819 438 899 q 595 638 595 739 q 533 494 595 549 q 383 438 471 438 q 191 518 274 438 q 109 696 109 597 q 172 840 109 781 q 328 899 235 899 m 507 677 q 466 775 507 740 q 363 810 425 810 q 245 767 292 810 q 198 661 198 724 q 240 563 198 602 q 345 524 282 524 q 458 566 410 524 q 507 677 507 608 z "},"ॱ":{"ha":292,"x_min":81,"x_max":211,"o":"m 81 857 q 100 902 81 883 q 146 921 119 921 q 192 902 173 921 q 211 857 211 883 q 192 810 211 829 q 146 791 173 791 q 100 810 119 791 q 81 857 81 829 z "},"ॲ":{"ha":1051,"x_min":54,"x_max":1089,"o":"m 627 1229 q 635 1261 627 1251 q 655 1278 642 1271 q 732 1138 686 1179 q 831 1098 777 1098 q 935 1139 888 1098 q 1002 1265 981 1179 q 1050 1236 1036 1251 q 1063 1194 1063 1220 q 1005 1070 1063 1133 q 855 1008 946 1008 q 689 1086 751 1008 q 627 1229 627 1164 m 120 770 q 173 863 120 820 q 326 905 227 905 q 527 835 449 905 q 605 658 605 765 q 587 574 605 611 q 529 502 570 536 q 591 479 559 486 q 649 472 622 472 q 758 509 714 472 q 802 615 802 546 l 802 812 l 691 812 l 653 896 l 657 902 l 1051 902 l 1089 818 l 1085 812 l 910 812 l 910 -8 l 904 -13 l 802 13 l 802 410 q 754 394 777 399 q 709 389 732 389 q 660 393 686 389 q 610 407 635 398 q 642 335 631 372 q 652 260 652 298 q 590 104 652 166 q 421 42 528 42 q 142 202 231 42 q 54 450 54 361 q 67 498 54 486 q 104 513 81 511 q 211 238 132 325 q 392 152 291 152 q 515 195 469 152 q 561 304 561 237 q 533 399 561 355 q 460 463 505 444 q 394 442 431 451 q 314 429 357 433 l 259 535 l 263 542 q 448 591 390 549 q 506 705 506 633 q 468 798 506 766 q 371 830 431 830 q 260 790 300 830 q 219 690 219 749 q 147 712 174 690 q 120 770 120 734 z "},"ॳ":{"ha":1051,"x_min":54,"x_max":1089,"o":"m 1089 818 l 1085 812 l 910 812 l 910 -8 l 904 -13 l 802 13 l 802 410 q 754 394 777 399 q 709 389 732 389 q 660 393 686 389 q 610 407 635 398 q 642 335 631 372 q 652 260 652 298 q 590 104 652 166 q 421 42 528 42 q 142 202 231 42 q 54 450 54 361 q 67 498 54 486 q 104 513 81 511 q 211 238 132 325 q 392 152 291 152 q 515 195 469 152 q 561 304 561 237 q 533 399 561 355 q 460 463 505 444 q 394 442 431 451 q 314 429 357 433 l 259 535 l 263 542 q 448 591 390 549 q 506 705 506 633 q 468 798 506 766 q 371 830 431 830 q 260 790 300 830 q 219 690 219 749 q 147 712 174 690 q 120 770 120 734 q 173 863 120 820 q 326 905 227 905 q 527 835 449 905 q 605 658 605 765 q 587 574 605 611 q 529 502 570 536 q 591 479 559 486 q 649 472 622 472 q 758 509 714 472 q 802 615 802 546 l 802 812 l 691 812 l 653 896 l 657 902 l 808 902 l 808 1090 l 814 1095 l 905 1076 l 905 902 l 1051 902 l 1089 818 z "},"ॴ":{"ha":1379,"x_min":54,"x_max":1417,"o":"m 1417 818 l 1413 812 l 1238 812 l 1238 -8 l 1232 -13 l 1129 13 l 1129 812 l 910 812 l 910 -8 l 904 -13 l 802 13 l 802 410 q 754 394 777 399 q 709 389 732 389 q 660 393 686 389 q 610 407 635 398 q 642 335 631 372 q 652 260 652 298 q 590 104 652 166 q 421 42 528 42 q 142 202 231 42 q 54 450 54 361 q 67 498 54 486 q 104 513 81 511 q 211 238 132 325 q 392 152 291 152 q 515 195 469 152 q 561 304 561 237 q 533 399 561 355 q 460 463 505 444 q 394 442 431 451 q 314 429 357 433 l 259 535 l 263 542 q 448 591 390 549 q 506 705 506 633 q 468 798 506 766 q 371 830 431 830 q 260 790 300 830 q 219 690 219 749 q 147 712 174 690 q 120 770 120 734 q 173 863 120 820 q 326 905 227 905 q 527 835 449 905 q 605 658 605 765 q 587 574 605 611 q 529 502 570 536 q 591 479 559 486 q 649 472 622 472 q 758 509 714 472 q 802 615 802 546 l 802 812 l 691 812 l 653 896 l 657 902 l 1135 902 l 1135 1090 l 1141 1095 l 1232 1076 l 1232 902 l 1379 902 l 1417 818 z "},"ॵ":{"ha":1379,"x_min":54,"x_max":1417,"o":"m 1417 818 l 1413 812 l 1238 812 l 1238 -8 l 1232 -13 l 1129 13 l 1129 812 l 910 812 l 910 -8 l 904 -13 l 802 13 l 802 410 q 754 394 777 399 q 709 389 732 389 q 660 393 686 389 q 610 407 635 398 q 642 335 631 372 q 652 260 652 298 q 590 104 652 166 q 421 42 528 42 q 142 202 231 42 q 54 450 54 361 q 67 498 54 486 q 104 513 81 511 q 211 238 132 325 q 392 152 291 152 q 515 195 469 152 q 561 304 561 237 q 533 399 561 355 q 460 463 505 444 q 394 442 431 451 q 314 429 357 433 l 259 535 l 263 542 q 448 591 390 549 q 506 705 506 633 q 468 798 506 766 q 371 830 431 830 q 260 790 300 830 q 219 690 219 749 q 147 712 174 690 q 120 770 120 734 q 173 863 120 820 q 326 905 227 905 q 527 835 449 905 q 605 658 605 765 q 587 574 605 611 q 529 502 570 536 q 591 479 559 486 q 649 472 622 472 q 758 509 714 472 q 802 615 802 546 l 802 812 l 691 812 l 653 896 l 657 902 l 1139 902 q 1144 926 1142 914 q 1145 944 1145 937 q 1090 992 1145 982 q 897 1009 1036 1002 q 643 1059 732 1018 q 554 1185 554 1099 q 557 1215 554 1202 q 566 1238 561 1227 q 666 1143 600 1168 q 859 1106 732 1118 q 1063 1079 1006 1093 q 1160 1013 1120 1065 l 1167 1017 q 1103 1111 1150 1084 q 959 1160 1056 1138 q 782 1214 851 1185 q 713 1319 713 1243 q 717 1352 713 1336 q 728 1379 721 1367 q 794 1306 749 1326 q 925 1261 840 1286 q 1149 1159 1084 1215 q 1234 902 1215 1103 l 1379 902 l 1417 818 z "},"ॶ":{"ha":1051,"x_min":54,"x_max":1089,"o":"m 120 770 q 173 863 120 820 q 326 905 227 905 q 527 835 449 905 q 605 658 605 765 q 587 574 605 611 q 529 502 570 536 q 591 479 559 486 q 649 472 622 472 q 758 509 714 472 q 802 615 802 546 l 802 812 l 691 812 l 653 896 l 657 902 l 1051 902 l 1089 818 l 1085 812 l 910 812 l 910 -8 l 904 -13 l 802 13 l 802 410 q 754 394 777 399 q 709 389 732 389 q 660 393 686 389 q 610 407 635 398 q 642 335 631 372 q 652 260 652 298 q 590 104 652 166 q 421 42 528 42 q 142 202 231 42 q 54 450 54 361 q 67 498 54 486 q 104 513 81 511 q 211 238 132 325 q 392 152 291 152 q 515 195 469 152 q 561 304 561 237 q 533 399 561 355 q 460 463 505 444 q 394 442 431 451 q 314 429 357 433 l 259 535 l 263 542 q 448 591 390 549 q 506 705 506 633 q 468 798 506 766 q 371 830 431 830 q 260 790 300 830 q 219 690 219 749 q 147 712 174 690 q 120 770 120 734 m 298 -102 q 304 -83 298 -91 q 316 -71 309 -75 q 436 -175 367 -140 q 578 -211 505 -211 q 714 -175 652 -211 q 810 -75 777 -140 q 852 -103 838 -84 q 867 -145 867 -121 q 794 -250 867 -200 q 615 -299 722 -299 q 388 -224 477 -299 q 298 -102 298 -150 z "},"ॷ":{"ha":1379,"x_min":54,"x_max":1417,"o":"m 1417 818 l 1413 812 l 1238 812 l 1238 -8 l 1232 -13 l 1129 13 l 1129 812 l 910 812 l 910 -8 l 904 -13 l 802 13 l 802 410 q 754 394 777 399 q 709 389 732 389 q 660 393 686 389 q 610 407 635 398 q 642 335 631 372 q 652 260 652 298 q 590 104 652 166 q 421 42 528 42 q 142 202 231 42 q 54 450 54 361 q 67 498 54 486 q 104 513 81 511 q 211 238 132 325 q 392 152 291 152 q 515 195 469 152 q 561 304 561 237 q 533 399 561 355 q 460 463 505 444 q 394 442 431 451 q 314 429 357 433 l 259 535 l 263 542 q 448 591 390 549 q 506 705 506 633 q 468 798 506 766 q 371 830 431 830 q 260 790 300 830 q 219 690 219 749 q 147 712 174 690 q 120 770 120 734 q 173 863 120 820 q 326 905 227 905 q 527 835 449 905 q 605 658 605 765 q 587 574 605 611 q 529 502 570 536 q 591 479 559 486 q 649 472 622 472 q 758 509 714 472 q 802 615 802 546 l 802 812 l 691 812 l 653 896 l 657 902 l 1379 902 l 1417 818 m 245 -102 q 251 -83 245 -91 q 263 -71 256 -75 q 383 -175 314 -140 q 525 -211 452 -211 q 662 -175 600 -211 q 758 -75 724 -140 q 799 -103 785 -84 q 814 -145 814 -121 q 741 -250 814 -200 q 562 -299 669 -299 q 335 -224 424 -299 q 245 -102 245 -150 m 814 -357 q 755 -440 814 -404 q 596 -477 696 -477 q 343 -398 441 -477 q 245 -272 245 -319 q 251 -253 245 -261 q 263 -240 256 -245 q 392 -348 313 -307 q 566 -389 471 -389 q 691 -365 638 -389 q 777 -298 745 -340 q 805 -325 795 -309 q 814 -357 814 -340 z "},"ॹ":{"ha":964,"x_min":-38,"x_max":1002,"o":"m 823 812 l 823 -8 l 817 -13 l 715 13 l 715 536 l 489 536 q 551 440 531 490 q 571 343 571 391 q 515 206 571 258 q 376 154 460 154 q 136 315 210 154 q 61 560 62 475 q 73 609 60 595 q 116 626 86 623 q 203 351 141 437 q 347 264 265 264 q 438 297 399 264 q 477 392 477 330 q 441 492 477 448 q 335 536 404 536 l 297 620 l 301 626 l 715 626 l 715 812 l 0 812 l -38 896 l -34 902 l 964 902 l 1002 818 l 998 812 l 823 812 m 473 25 q 490 65 473 48 q 530 81 507 81 q 569 65 553 81 q 585 25 585 48 q 569 -15 585 2 q 530 -31 553 -31 q 490 -15 507 -31 q 473 25 473 2 m 161 25 q 178 65 161 48 q 218 81 195 81 q 257 65 241 81 q 273 25 273 48 q 257 -15 273 2 q 218 -31 241 -31 q 178 -15 195 -31 q 161 25 161 2 m 322 -97 q 339 -57 322 -74 q 378 -41 355 -41 q 418 -57 401 -41 q 434 -97 434 -74 q 418 -137 434 -120 q 378 -153 401 -153 q 339 -137 355 -153 q 322 -97 322 -120 z "},"ॺ":{"ha":846,"x_min":-38,"x_max":884,"o":"m 706 -8 l 700 -13 l 597 13 l 597 227 q 526 189 563 201 q 446 177 489 177 q 243 254 344 177 q 56 502 143 332 l 59 509 q 216 583 172 541 q 259 690 259 626 q 251 755 259 723 q 230 812 242 787 l 0 812 l -38 896 l -34 902 l 846 902 l 884 818 l 880 812 l 706 812 l 706 -8 m 298 812 l 590 410 q 595 437 593 422 q 597 468 597 452 l 597 812 l 298 812 m 181 425 q 285 317 225 349 q 400 286 345 286 q 483 302 443 286 q 551 349 522 319 l 353 617 q 306 500 348 544 q 181 425 263 456 z "},"ॻ":{"ha":842,"x_min":-38,"x_max":880,"o":"m 880 818 l 876 812 l 701 812 l 701 -36 l 94 -36 l 62 35 l 66 41 l 593 41 l 593 812 l 298 812 l 298 355 q 282 273 298 300 q 237 246 267 246 q 123 311 184 246 q 61 414 61 376 q 74 440 61 429 q 115 452 86 452 l 193 452 l 193 812 l 0 812 l -38 896 l -34 902 l 842 902 l 880 818 z "},"ॼ":{"ha":964,"x_min":-38,"x_max":1002,"o":"m 1002 818 l 998 812 l 823 812 l 823 -36 l 100 -36 l 69 35 l 73 41 l 715 41 l 715 536 l 489 536 q 551 440 531 490 q 571 342 571 391 q 515 206 571 258 q 376 154 460 154 q 136 314 210 154 q 61 560 62 474 q 73 608 60 593 q 116 626 85 623 q 203 351 141 437 q 347 264 265 264 q 438 297 399 264 q 477 392 477 330 q 441 492 477 448 q 335 536 404 536 l 297 620 l 301 626 l 715 626 l 715 812 l 0 812 l -38 896 l -34 902 l 964 902 l 1002 818 z "},"ॽ":{"ha":641,"x_min":61,"x_max":580,"o":"m 268 905 q 491 824 401 905 q 580 618 580 742 q 513 448 580 511 q 342 358 447 384 l 342 5 l 336 1 l 234 26 l 234 460 q 420 524 359 471 q 481 662 481 577 q 432 787 481 745 q 313 830 384 830 q 200 790 241 830 q 160 690 160 749 q 88 712 115 690 q 61 770 61 734 q 114 863 61 820 q 268 905 168 905 z "},"ॾ":{"ha":713,"x_min":-38,"x_max":751,"o":"m 585 812 l 585 606 l 579 600 l 311 600 q 236 582 257 600 q 214 534 214 563 q 236 481 214 501 q 301 461 258 461 q 378 468 331 461 q 452 475 425 475 q 585 409 525 475 q 644 249 644 343 q 590 116 644 164 q 440 67 535 67 q 170 183 273 67 q 62 363 66 300 q 68 396 60 382 q 90 418 75 410 q 235 234 152 294 q 404 173 318 173 q 522 207 471 173 q 573 292 573 240 q 553 344 573 323 q 499 366 533 366 q 430 360 479 366 q 355 354 382 354 q 198 428 271 354 q 125 587 125 501 q 157 667 125 637 q 256 696 189 696 l 475 696 q 479 697 477 696 q 480 701 480 699 l 480 812 l 0 812 l -38 896 l -34 902 l 713 902 l 751 818 l 747 812 l 585 812 m 100 -104 l 69 -33 l 73 -27 l 656 -27 l 688 -98 l 684 -104 l 100 -104 z "},"ॿ":{"ha":787,"x_min":-38,"x_max":825,"o":"m 538 41 l 538 201 q 452 160 495 172 q 374 149 410 149 q 158 238 262 149 q 54 452 54 328 q 125 616 54 550 q 304 683 197 683 q 426 658 364 683 q 538 580 487 633 l 538 812 l 0 812 l -38 896 l -34 902 l 787 902 l 825 818 l 821 812 l 646 812 l 646 -36 l 94 -36 l 62 35 l 66 41 l 538 41 m 538 419 l 538 442 q 484 544 538 503 q 353 585 431 585 q 307 581 330 585 q 264 568 283 576 l 484 300 q 523 354 509 323 q 538 419 538 385 m 155 405 q 202 286 155 334 q 326 237 250 237 q 376 243 350 237 q 422 259 401 248 l 201 525 q 167 470 179 501 q 155 405 155 439 z "},"꣠":{"ha":0,"x_min":-345,"x_max":-62,"o":"m -222 1314 q -108 1267 -154 1314 q -62 1156 -62 1220 q -98 1075 -62 1108 q -183 1041 -134 1041 q -299 1088 -252 1041 q -345 1196 -345 1136 q -310 1278 -345 1242 q -222 1314 -275 1314 m -130 1183 q -149 1234 -130 1215 q -197 1253 -168 1253 q -252 1229 -230 1253 q -275 1172 -275 1205 q -256 1120 -275 1141 q -209 1100 -237 1100 q -154 1122 -179 1100 q -130 1183 -130 1145 z "},"꣡":{"ha":0,"x_min":-327,"x_max":-108,"o":"m -231 1103 q -150 1043 -191 1076 q -108 973 -108 1010 q -120 942 -108 955 q -154 929 -133 929 q -189 942 -174 929 q -209 969 -204 954 q -189 981 -195 974 q -183 995 -183 988 q -217 1036 -183 1010 q -321 1111 -251 1062 l -322 1117 q -276 1157 -296 1139 q -239 1190 -256 1175 q -302 1242 -277 1212 q -327 1306 -327 1272 q -301 1363 -327 1341 q -240 1384 -275 1384 q -155 1348 -192 1384 q -119 1267 -119 1312 q -147 1191 -119 1233 q -231 1103 -175 1149 m -217 1333 q -240 1321 -230 1333 q -251 1288 -251 1309 q -243 1256 -251 1271 q -211 1224 -235 1241 q -193 1257 -199 1240 q -187 1288 -187 1273 q -196 1322 -187 1311 q -217 1333 -205 1333 z "},"꣢":{"ha":0,"x_min":-352,"x_max":-67,"o":"m -132 1016 q -114 1019 -123 1016 q -90 1031 -104 1021 q -73 1007 -78 1020 q -67 985 -67 994 q -81 956 -67 968 q -118 943 -94 943 q -189 974 -151 943 q -252 1075 -227 1004 q -319 1087 -286 1072 q -352 1136 -352 1103 q -336 1170 -352 1158 q -300 1182 -321 1182 q -266 1174 -281 1182 q -239 1151 -250 1165 q -173 1205 -194 1172 q -151 1271 -151 1238 q -167 1317 -151 1301 q -207 1333 -183 1333 q -257 1310 -238 1333 q -273 1253 -275 1286 q -326 1263 -307 1249 q -345 1299 -345 1276 q -311 1357 -345 1331 q -226 1384 -276 1384 q -123 1342 -164 1384 q -81 1245 -81 1300 q -114 1153 -81 1200 q -211 1084 -146 1106 q -171 1028 -188 1041 q -132 1016 -153 1016 z "},"꣣":{"ha":0,"x_min":-345,"x_max":-87,"o":"m -165 975 q -143 978 -152 975 q -120 990 -134 981 q -106 972 -111 983 q -101 954 -101 962 q -115 925 -101 937 q -149 913 -128 913 q -202 935 -175 913 q -250 999 -229 956 q -314 1021 -289 1002 q -338 1065 -338 1040 q -325 1096 -338 1083 q -289 1109 -311 1109 q -250 1096 -267 1109 q -224 1064 -233 1083 q -175 1085 -192 1069 q -158 1122 -158 1101 q -166 1151 -158 1137 q -189 1173 -174 1164 q -227 1164 -205 1168 q -274 1158 -249 1160 l -296 1219 l -292 1223 q -196 1243 -225 1225 q -167 1291 -167 1261 q -180 1324 -167 1313 q -215 1336 -193 1336 q -259 1317 -244 1336 q -273 1268 -274 1297 q -324 1276 -303 1263 q -345 1310 -345 1288 q -315 1359 -345 1335 q -235 1383 -286 1383 q -136 1348 -176 1383 q -97 1268 -97 1313 q -107 1230 -97 1248 q -140 1195 -117 1211 q -101 1151 -115 1176 q -87 1103 -87 1126 q -117 1040 -87 1069 q -209 1005 -147 1010 q -184 980 -194 984 q -165 975 -174 975 z "},"꣤":{"ha":0,"x_min":-371,"x_max":-53,"o":"m -173 1179 q -121 1118 -136 1142 q -107 1071 -107 1095 q -136 1010 -107 1028 q -192 993 -165 993 q -267 1025 -233 993 q -302 1095 -302 1057 q -293 1129 -302 1110 q -258 1186 -284 1148 q -336 1254 -300 1221 q -371 1321 -371 1286 q -352 1364 -371 1346 q -305 1383 -332 1383 q -268 1369 -281 1383 q -248 1335 -254 1354 q -281 1327 -266 1335 q -296 1302 -296 1319 q -280 1272 -296 1286 q -228 1225 -264 1257 l -111 1383 l -53 1343 l -173 1179 m -235 1076 q -227 1056 -235 1063 q -208 1049 -218 1049 q -186 1058 -195 1049 q -178 1084 -178 1066 q -184 1110 -178 1098 q -204 1138 -190 1122 q -228 1101 -220 1116 q -235 1076 -235 1086 z "},"꣥":{"ha":0,"x_min":-376,"x_max":-54,"o":"m -91 1181 q -95 1155 -91 1168 q -106 1128 -99 1142 q -67 1063 -80 1092 q -54 1013 -54 1034 q -71 969 -54 988 q -114 951 -87 951 q -151 963 -134 951 q -176 1000 -169 976 q -133 1011 -146 1002 q -120 1039 -120 1020 q -124 1062 -120 1050 q -140 1088 -129 1074 q -188 1058 -163 1069 q -239 1046 -214 1046 q -333 1085 -290 1046 q -376 1181 -376 1124 q -350 1278 -376 1223 q -286 1386 -324 1333 l -227 1350 l -226 1344 q -287 1236 -267 1285 q -307 1156 -307 1187 q -294 1117 -307 1131 q -258 1103 -281 1103 q -223 1111 -243 1103 q -180 1143 -203 1118 q -203 1176 -198 1161 q -209 1199 -209 1190 q -194 1235 -209 1219 q -155 1251 -179 1251 q -108 1228 -125 1251 q -91 1181 -91 1206 z "},"꣦":{"ha":0,"x_min":-355,"x_max":-80,"o":"m -99 1091 q -105 1067 -99 1080 q -121 1045 -111 1054 q -89 998 -97 1016 q -80 966 -80 979 q -93 934 -80 948 q -129 920 -106 920 q -164 933 -151 920 q -181 967 -178 946 q -155 973 -164 967 q -145 991 -145 979 q -148 1006 -145 998 q -157 1021 -151 1014 q -186 1012 -172 1015 q -213 1009 -199 1009 q -314 1049 -273 1009 q -354 1133 -354 1089 q -343 1173 -354 1154 q -306 1208 -332 1192 q -341 1247 -328 1225 q -355 1292 -355 1268 q -322 1356 -355 1329 q -243 1383 -290 1383 q -176 1361 -199 1383 q -157 1312 -153 1339 q -184 1320 -168 1317 q -217 1324 -200 1324 q -267 1309 -251 1324 q -283 1272 -283 1293 q -278 1250 -283 1259 q -262 1231 -273 1240 q -224 1240 -245 1236 q -180 1245 -203 1244 l -153 1191 l -157 1185 q -261 1158 -235 1179 q -286 1111 -286 1136 q -271 1074 -286 1086 q -231 1061 -255 1061 q -218 1063 -224 1061 q -201 1068 -212 1064 q -209 1084 -206 1075 q -212 1099 -212 1093 q -197 1133 -212 1118 q -158 1147 -182 1147 q -115 1128 -132 1147 q -99 1091 -99 1110 z "},"꣧":{"ha":0,"x_min":-395,"x_max":-73,"o":"m -285 1273 q -261 1333 -285 1310 q -203 1356 -238 1356 q -110 1300 -146 1356 q -73 1170 -73 1244 q -108 1060 -73 1097 q -196 1022 -142 1022 q -343 1118 -290 1022 q -395 1318 -395 1214 q -389 1358 -395 1341 q -357 1374 -383 1374 q -351 1374 -354 1374 q -346 1373 -348 1373 q -303 1158 -343 1227 q -216 1088 -262 1088 q -176 1101 -195 1088 q -148 1136 -157 1113 q -246 1185 -208 1145 q -285 1273 -285 1225 m -184 1297 q -205 1286 -196 1297 q -214 1254 -214 1275 q -196 1207 -214 1227 q -139 1181 -178 1187 q -138 1188 -138 1184 q -138 1196 -138 1193 q -150 1267 -138 1237 q -184 1297 -162 1297 z "},"꣨":{"ha":0,"x_min":-320,"x_max":-47,"o":"m -47 1098 q -85 1042 -47 1075 q -183 1008 -124 1008 q -279 1043 -238 1008 q -320 1126 -320 1078 q -308 1176 -320 1149 q -242 1257 -295 1202 q -169 1328 -206 1294 q -123 1371 -132 1362 l -68 1337 l -68 1331 q -115 1284 -79 1320 q -191 1208 -152 1248 q -239 1147 -226 1168 q -253 1106 -253 1126 q -240 1076 -253 1087 q -210 1065 -227 1065 q -147 1085 -175 1065 q -92 1147 -119 1105 q -60 1125 -73 1140 q -47 1098 -47 1111 z "},"꣩":{"ha":0,"x_min":-346,"x_max":-115,"o":"m -209 1162 q -177 1124 -189 1138 q -151 1092 -165 1110 q -126 1052 -134 1069 q -119 1019 -119 1036 q -136 977 -119 994 q -176 960 -153 960 q -209 971 -194 960 q -231 1003 -224 983 q -204 1017 -215 1006 q -193 1041 -193 1028 q -213 1089 -193 1065 q -271 1154 -234 1114 q -327 1226 -307 1196 q -346 1291 -346 1257 q -318 1356 -346 1329 q -243 1382 -290 1382 q -154 1345 -194 1382 q -115 1258 -115 1308 q -138 1196 -115 1223 q -209 1162 -162 1169 m -180 1276 q -194 1315 -180 1300 q -225 1329 -207 1329 q -258 1315 -243 1329 q -273 1272 -273 1301 q -268 1242 -273 1255 q -255 1217 -264 1230 q -198 1235 -216 1219 q -180 1276 -180 1251 z "},"꣪":{"ha":0,"x_min":-438,"x_max":51,"o":"m -98 1160 q -117 1156 -109 1157 q -130 1156 -125 1156 q -146 1157 -138 1156 q -159 1158 -154 1158 q -148 1129 -152 1143 q -144 1102 -144 1116 q -175 1030 -144 1061 q -261 1000 -206 1000 q -396 1076 -355 1000 q -438 1192 -438 1152 q -428 1219 -438 1213 q -399 1226 -418 1225 q -353 1100 -385 1137 q -281 1063 -321 1063 q -232 1079 -252 1063 q -213 1125 -213 1096 q -222 1163 -213 1145 q -245 1187 -232 1180 q -279 1177 -260 1181 q -320 1173 -298 1173 l -340 1233 l -337 1238 q -262 1257 -286 1240 q -237 1305 -237 1274 q -251 1342 -237 1331 q -285 1354 -264 1354 q -327 1337 -312 1354 q -340 1292 -342 1319 q -390 1301 -369 1287 q -411 1335 -411 1314 q -383 1380 -411 1358 q -304 1402 -355 1402 q -205 1367 -243 1402 q -166 1284 -166 1333 q -174 1246 -166 1262 q -197 1215 -182 1230 q -178 1209 -189 1211 q -159 1207 -168 1207 q -116 1221 -134 1207 q -98 1265 -98 1236 l -98 1346 l -144 1346 l -157 1396 l -153 1400 l 39 1400 l 51 1351 l 47 1346 l -22 1346 l -22 987 l -26 983 l -98 989 l -98 1160 z "},"꣫":{"ha":0,"x_min":-395,"x_max":-17,"o":"m -85 1280 q -93 1246 -85 1262 q -119 1213 -101 1230 q -77 1164 -92 1192 q -62 1107 -62 1137 q -94 1033 -62 1065 q -182 1000 -126 1000 q -325 1082 -280 1000 q -369 1202 -369 1163 q -359 1231 -369 1219 q -323 1240 -349 1243 q -273 1108 -307 1151 q -197 1065 -239 1065 q -150 1082 -168 1065 q -131 1128 -131 1099 q -142 1167 -131 1152 q -169 1190 -153 1183 q -205 1182 -184 1185 q -248 1181 -226 1180 l -263 1242 l -260 1247 q -181 1262 -207 1246 q -155 1303 -155 1277 q -164 1333 -155 1320 q -195 1346 -174 1346 l -381 1346 l -395 1396 l -391 1400 l -31 1400 l -17 1351 l -20 1346 l -113 1346 q -92 1311 -98 1328 q -85 1280 -85 1295 z "},"꣬":{"ha":0,"x_min":-469,"x_max":48,"o":"m -355 1168 q -338 1122 -355 1139 q -296 1104 -321 1104 q -254 1119 -273 1104 q -235 1161 -235 1135 l -235 1178 q -252 1218 -235 1201 q -295 1235 -270 1235 q -338 1216 -320 1235 q -355 1168 -355 1198 m -159 1265 q -131 1276 -144 1272 q -105 1279 -118 1279 q -23 1243 -58 1279 q 13 1147 13 1206 q -10 1070 13 1099 q -61 1042 -33 1042 q -95 1053 -79 1042 q -118 1077 -111 1063 q -71 1121 -89 1094 q -52 1181 -52 1147 q -61 1214 -52 1204 q -83 1225 -69 1225 q -132 1201 -106 1225 q -159 1139 -159 1177 l -159 987 l -163 983 l -235 989 l -235 1055 q -257 1049 -247 1051 q -276 1048 -267 1048 q -378 1091 -328 1048 q -428 1191 -428 1135 q -396 1265 -428 1234 q -317 1296 -364 1296 q -278 1290 -299 1296 q -235 1271 -257 1284 l -235 1346 l -456 1346 l -469 1396 l -466 1400 l 37 1400 l 48 1351 l 45 1346 l -159 1346 l -159 1265 z "},"꣭":{"ha":0,"x_min":-415,"x_max":-26,"o":"m -98 1346 l -98 987 l -102 983 l -174 989 l -174 1192 l -268 1192 l -268 1153 q -276 1129 -268 1137 q -298 1122 -284 1122 q -355 1157 -322 1122 q -387 1221 -387 1192 q -365 1248 -387 1241 q -319 1255 -343 1255 l -174 1255 l -174 1346 l -401 1346 l -415 1396 l -412 1400 l -39 1400 l -26 1351 l -29 1346 l -98 1346 z "},"꣮":{"ha":0,"x_min":-415,"x_max":-28,"o":"m -105 983 l -177 989 l -177 1099 q -205 1091 -192 1094 q -231 1088 -219 1088 q -324 1128 -283 1088 q -365 1218 -365 1168 l -365 1346 l -401 1346 l -415 1396 l -412 1400 l -41 1400 l -28 1351 l -32 1346 l -101 1346 l -101 987 l -105 983 m -289 1192 q -278 1152 -289 1164 q -250 1139 -267 1139 q -200 1161 -223 1139 q -177 1217 -177 1183 l -177 1346 l -289 1346 l -289 1192 z "},"꣯":{"ha":0,"x_min":-352,"x_max":-41,"o":"m -117 1251 q -141 1178 -117 1212 q -233 1131 -166 1144 q -169 1061 -204 1090 q -90 1010 -134 1032 q -104 990 -90 999 q -132 981 -118 981 q -249 1060 -180 981 q -317 1187 -317 1140 q -303 1218 -317 1204 q -262 1232 -289 1232 q -236 1229 -252 1232 q -207 1218 -221 1225 q -190 1240 -196 1226 q -184 1273 -184 1254 q -189 1308 -184 1289 q -201 1346 -193 1327 l -338 1346 l -352 1396 l -349 1400 l -52 1400 l -41 1351 l -44 1346 l -146 1346 q -125 1296 -133 1320 q -117 1251 -117 1272 z "},"꣰":{"ha":0,"x_min":-521,"x_max":42,"o":"m -32 1346 l -32 987 l -36 983 l -108 989 l -108 1061 q -140 1051 -125 1055 q -169 1048 -156 1048 q -274 1091 -223 1048 q -326 1191 -326 1134 q -290 1269 -326 1236 q -197 1302 -254 1302 q -155 1296 -176 1302 q -108 1274 -133 1290 l -108 1346 l -373 1346 l -373 987 l -377 983 l -449 989 l -449 1346 l -508 1346 l -521 1396 l -517 1400 l -465 1400 q -485 1433 -478 1417 q -492 1468 -492 1449 q -455 1544 -492 1512 q -349 1576 -418 1576 q -193 1532 -273 1576 q -51 1400 -112 1487 l 28 1400 l 42 1351 l 39 1346 l -32 1346 m -117 1400 q -221 1486 -165 1458 q -332 1514 -277 1514 q -401 1496 -378 1514 q -423 1449 -423 1478 q -418 1422 -423 1434 q -402 1400 -412 1410 l -117 1400 m -253 1170 q -235 1122 -253 1139 q -189 1104 -217 1104 q -134 1124 -160 1104 q -108 1177 -108 1143 l -108 1184 q -128 1228 -108 1211 q -178 1244 -149 1244 q -232 1224 -211 1244 q -253 1170 -253 1203 z "},"꣱":{"ha":0,"x_min":-324,"x_max":-68,"o":"m -90 1346 l -192 1346 q -239 1337 -227 1347 q -252 1309 -252 1326 q -192 1254 -252 1270 q -90 1177 -131 1239 q -73 1142 -79 1159 q -68 1108 -68 1125 q -96 1040 -68 1069 q -174 1011 -124 1011 q -284 1059 -244 1011 q -324 1146 -324 1107 q -317 1170 -324 1157 q -286 1184 -310 1183 q -244 1098 -271 1123 q -189 1072 -218 1072 q -147 1088 -163 1072 q -130 1128 -130 1103 q -190 1191 -130 1181 q -299 1272 -250 1201 q -314 1297 -308 1283 q -320 1327 -320 1311 q -291 1380 -320 1360 q -217 1400 -262 1400 l -99 1400 l -86 1351 l -90 1346 z "},"ꣲ":{"ha":572,"x_min":68,"x_max":504,"o":"m 340 850 q 320 803 340 823 q 273 783 300 783 q 227 803 246 783 q 208 850 208 823 q 227 896 208 877 q 273 916 246 916 q 320 896 300 916 q 340 850 340 877 m 68 819 q 75 851 68 842 q 96 868 83 861 q 172 729 127 769 q 271 688 218 688 q 375 729 328 688 q 443 856 422 770 q 490 826 477 842 q 504 784 504 810 q 445 661 504 723 q 296 598 387 598 q 130 676 192 598 q 68 819 68 754 z "},"ꣳ":{"ha":572,"x_min":68,"x_max":604,"o":"m 340 850 q 320 803 340 823 q 273 783 300 783 q 227 803 246 783 q 208 850 208 823 q 227 896 208 877 q 273 916 246 916 q 320 896 300 916 q 340 850 340 877 m 68 819 q 75 851 68 842 q 96 868 83 861 q 172 729 127 769 q 271 688 218 688 q 375 729 328 688 q 443 856 422 770 q 490 826 477 842 q 504 784 504 810 q 445 661 504 723 q 296 598 387 598 q 130 676 192 598 q 68 819 68 754 m 125 368 q 151 410 125 393 q 227 426 178 426 q 299 416 258 426 q 395 372 341 406 q 544 248 484 318 q 604 152 604 177 q 598 136 604 145 q 583 123 593 127 q 404 278 479 241 q 270 314 330 314 q 215 309 241 314 q 170 300 189 304 q 137 333 149 316 q 125 368 125 351 z "},"ꣴ":{"ha":572,"x_min":68,"x_max":604,"o":"m 340 850 q 320 803 340 823 q 273 783 300 783 q 227 803 246 783 q 208 850 208 823 q 227 896 208 877 q 273 916 246 916 q 320 896 300 916 q 340 850 340 877 m 68 819 q 75 851 68 842 q 96 868 83 861 q 172 729 127 769 q 271 688 218 688 q 375 729 328 688 q 443 856 422 770 q 490 826 477 842 q 504 784 504 810 q 445 661 504 723 q 296 598 387 598 q 130 676 192 598 q 68 819 68 754 m 340 443 q 320 396 340 416 q 273 376 300 376 q 227 396 246 376 q 208 443 208 416 q 227 489 208 470 q 273 509 246 509 q 320 489 300 509 q 340 443 340 470 m 68 412 q 75 445 68 435 q 96 461 83 454 q 172 322 127 362 q 271 281 218 281 q 375 322 328 281 q 443 449 422 363 q 490 419 477 435 q 504 377 504 404 q 445 254 504 316 q 296 191 387 191 q 130 269 192 191 q 68 412 68 347 m 125 -12 q 151 30 125 14 q 227 46 178 46 q 299 36 258 46 q 395 -7 341 26 q 544 -132 484 -62 q 604 -228 604 -203 q 598 -243 604 -235 q 583 -257 593 -252 q 404 -102 479 -138 q 270 -66 330 -66 q 215 -71 241 -66 q 170 -80 189 -75 q 137 -46 149 -64 q 125 -12 125 -29 z "},"ꣵ":{"ha":572,"x_min":68,"x_max":516,"o":"m 340 850 q 320 803 340 823 q 273 783 300 783 q 227 803 246 783 q 208 850 208 823 q 227 896 208 877 q 273 916 246 916 q 320 896 300 916 q 340 850 340 877 m 68 819 q 75 851 68 842 q 96 868 83 861 q 172 729 127 769 q 271 688 218 688 q 375 729 328 688 q 443 856 422 770 q 490 826 477 842 q 504 784 504 810 q 445 661 504 723 q 296 598 387 598 q 130 676 192 598 q 68 819 68 754 m 422 -73 q 451 -69 437 -73 q 484 -52 465 -64 q 508 -81 500 -65 q 516 -111 516 -96 q 495 -151 516 -133 q 439 -169 474 -169 q 336 -122 393 -169 q 225 46 280 -75 q 136 68 186 45 q 85 142 85 90 q 106 188 85 168 q 160 207 128 207 q 210 193 185 207 q 250 155 234 179 q 361 243 326 190 q 396 347 396 296 q 369 423 396 397 q 302 448 342 448 q 220 411 250 448 q 191 324 189 374 q 122 339 149 320 q 95 390 95 358 q 147 479 95 437 q 273 522 199 522 q 426 459 362 522 q 490 315 490 397 q 438 177 490 246 q 286 63 387 108 q 356 -45 325 -18 q 422 -73 387 -73 z "},"ꣶ":{"ha":572,"x_min":68,"x_max":504,"o":"m 340 850 q 320 803 340 823 q 273 783 300 783 q 227 803 246 783 q 208 850 208 823 q 227 896 208 877 q 273 916 246 916 q 320 896 300 916 q 340 850 340 877 m 68 819 q 75 851 68 842 q 96 868 83 861 q 172 729 127 769 q 271 688 218 688 q 375 729 328 688 q 443 856 422 770 q 490 826 477 842 q 504 784 504 810 q 445 661 504 723 q 296 598 387 598 q 130 676 192 598 q 68 819 68 754 m 379 -124 q 407 -120 394 -124 q 440 -103 419 -116 q 465 -131 456 -115 q 473 -161 473 -147 q 452 -202 473 -184 q 397 -220 431 -220 q 311 -182 354 -220 q 235 -68 268 -145 q 143 -35 178 -65 q 109 28 109 -5 q 129 73 109 53 q 181 94 149 94 q 237 74 212 94 q 275 22 262 54 q 362 56 334 29 q 390 117 390 83 q 377 163 390 141 q 336 201 363 186 q 278 186 311 192 q 207 177 245 180 l 167 261 l 170 266 q 331 303 285 273 q 376 379 376 334 q 353 435 376 416 q 294 454 330 454 q 220 424 246 454 q 197 347 195 393 q 127 362 154 343 q 100 412 100 381 q 143 484 100 448 q 264 520 186 520 q 413 468 355 520 q 470 345 470 416 q 455 283 470 311 q 402 229 441 256 q 464 163 441 201 q 486 87 486 125 q 440 -11 486 35 q 297 -66 394 -56 q 335 -113 318 -101 q 379 -124 352 -124 z "},"ꣷ":{"ha":572,"x_min":68,"x_max":504,"o":"m 340 850 q 320 803 340 823 q 273 783 300 783 q 227 803 246 783 q 208 850 208 823 q 227 896 208 877 q 273 916 246 916 q 320 896 300 916 q 340 850 340 877 m 68 819 q 75 851 68 842 q 96 868 83 861 q 172 729 127 769 q 271 688 218 688 q 375 729 328 688 q 443 856 422 770 q 490 826 477 842 q 504 784 504 810 q 445 661 504 723 q 296 598 387 598 q 130 676 192 598 q 68 819 68 754 m 465 442 l 300 442 q 228 422 252 442 q 203 375 203 403 q 297 287 203 310 q 452 172 391 264 q 477 120 469 146 q 485 68 485 94 q 444 -36 485 7 q 328 -79 402 -79 q 163 -6 223 -79 q 102 126 102 67 q 112 161 102 142 q 157 181 121 179 q 211 48 168 87 q 306 8 254 8 q 376 34 349 8 q 404 99 404 59 q 308 200 404 181 q 139 324 213 219 q 118 362 127 341 q 109 408 109 382 q 152 489 109 459 q 261 519 195 519 l 440 519 l 467 447 l 465 442 z "},"꣸":{"ha":907,"x_min":68,"x_max":840,"o":"m 648 720 q 777 658 715 720 q 840 471 840 596 q 728 175 840 309 q 458 41 617 41 q 253 120 335 41 q 172 288 172 198 q 180 345 172 317 q 205 396 189 372 q 101 480 135 431 q 68 582 68 530 q 117 694 68 650 q 237 738 167 738 q 314 715 284 738 q 366 642 345 692 q 213 614 258 642 q 167 541 167 586 q 188 486 167 510 q 252 444 208 463 q 313 476 279 463 q 387 494 347 490 l 462 406 l 459 399 q 310 339 359 383 q 261 243 261 295 q 302 163 261 192 q 404 134 344 134 q 562 184 487 134 q 686 311 637 235 q 556 448 597 380 q 515 579 515 517 q 555 684 515 647 q 648 720 595 720 m 718 368 q 745 448 734 406 q 755 531 755 490 q 739 606 755 581 q 692 632 723 632 q 633 604 656 632 q 610 536 610 575 q 636 455 610 498 q 718 368 663 413 z "},"꣹":{"ha":804,"x_min":68,"x_max":736,"o":"m 549 438 l 500 385 q 433 485 454 435 q 411 579 411 534 q 451 684 411 647 q 544 720 491 720 q 673 658 611 720 q 736 471 736 596 q 625 175 736 309 q 354 41 513 41 q 150 120 231 41 q 68 289 68 198 q 127 425 68 366 q 283 494 186 484 l 358 406 l 355 399 q 206 339 255 383 q 157 243 157 295 q 199 163 157 192 q 302 134 240 134 q 550 267 448 134 q 652 531 652 401 q 635 606 652 581 q 588 632 619 632 q 529 604 553 632 q 506 536 506 575 q 517 486 506 511 q 549 438 528 460 z "},"꣺":{"ha":628,"x_min":68,"x_max":560,"o":"m 68 1177 l 165 1210 l 311 964 l 317 964 l 463 1210 l 560 1177 l 366 899 l 262 899 l 68 1177 z "},"ꣻ":{"ha":706,"x_min":-38,"x_max":744,"o":"m 0 1069 l -38 1154 l -34 1160 l 706 1160 l 744 1076 l 740 1069 l 0 1069 z "}," ":{"ha":361,"x_min":0,"x_max":0,"o":""}}}
